<?xml version="1.0" encoding="UTF-8" standalone="no"?>
<!-- generated by Grace-5.1.21 -->
<svg
   xmlns:dc="http://purl.org/dc/elements/1.1/"
   xmlns:cc="http://web.resource.org/cc/"
   xmlns:rdf="http://www.w3.org/1999/02/22-rdf-syntax-ns#"
   xmlns:svg="http://www.w3.org/2000/svg"
   xmlns="http://www.w3.org/2000/svg"
   xmlns:sodipodi="http://sodipodi.sourceforge.net/DTD/sodipodi-0.dtd"
   xmlns:inkscape="http://www.inkscape.org/namespaces/inkscape"
   xml:space="preserve"
   width="11in"
   height="8.5in"
   viewBox="0 0 792 612"
   id="svg2"
   sodipodi:version="0.32"
   inkscape:version="0.45"
   sodipodi:docname="phd-counter-instr-2.svg"
   inkscape:output_extension="org.inkscape.output.svg.inkscape"
   sodipodi:docbase="/home/cananian/Harpoon/Design/Figures"
   version="1.0"
   sodipodi:modified="TRUE"><metadata
   id="metadata229"><rdf:RDF><cc:Work
       rdf:about=""><dc:format>image/svg+xml</dc:format><dc:type
         rdf:resource="http://purl.org/dc/dcmitype/StillImage" /></cc:Work></rdf:RDF></metadata><defs
   id="defs227">
  
  
  
  
  
  
  
  
  
  
  
  
  
  
  
  
  
  
  
  
  
  
  
  
  
  
  
  
  
  
  
  
 
   
   
  
   
   
   
   
   
   
   
   
  </defs><sodipodi:namedview
   inkscape:window-height="588"
   inkscape:window-width="790"
   inkscape:pageshadow="2"
   inkscape:pageopacity="0.0"
   guidetolerance="10.0"
   gridtolerance="10.0"
   objecttolerance="10.0"
   borderopacity="1.0"
   bordercolor="#666666"
   pagecolor="#ffffff"
   id="base"
   inkscape:zoom="0.49673203"
   inkscape:cx="495"
   inkscape:cy="380.48684"
   inkscape:window-x="537"
   inkscape:window-y="332"
   inkscape:current-layer="svg2" />
 <g
   id="g10"
   style="fill:#000000;fill-rule:nonzero"
   transform="matrix(1,0,0,-1,0,612)"
   inkscape:export-filename="/home/cananian/Harpoon/Design/Figures/phd-counter-instr-2.png"
   inkscape:export-xdpi="172.78999"
   inkscape:export-ydpi="172.78999">
   <path
   id="path12"
   d="M 236.0571,91.8 L 236.0571,138.21 L 297.2571,138.21 L 297.2571,91.8 L 236.0571,91.8 z " />
   <path
   id="path14"
   d="M 410.9143,91.8 L 410.9143,138.21 L 472.1143,138.21 L 472.1143,91.8 L 410.9143,91.8 z " />
  </g><g
   id="g16"
   style="fill:#ff0000;fill-rule:nonzero"
   transform="matrix(1,0,0,-1,0,612)"
   inkscape:export-filename="/home/cananian/Harpoon/Design/Figures/phd-counter-instr-2.png"
   inkscape:export-xdpi="172.78999"
   inkscape:export-ydpi="172.78999">
   <path
   id="path18"
   d="M 236.0571,138.21 L 236.0571,145.35 L 297.2571,145.35 L 297.2571,138.21 L 236.0571,138.21 z " />
   <path
   id="path20"
   d="M 410.9143,138.21 L 410.9143,145.35 L 472.1143,145.35 L 472.1143,138.21 L 410.9143,138.21 z " />
  </g><g
   id="g22"
   style="fill:#00ff00;fill-rule:nonzero"
   transform="matrix(1,0,0,-1,0,612)"
   inkscape:export-filename="/home/cananian/Harpoon/Design/Figures/phd-counter-instr-2.png"
   inkscape:export-xdpi="172.78999"
   inkscape:export-ydpi="172.78999">
   <path
   id="path24"
   d="M 236.0571,145.35 L 236.0571,206.04 L 297.2571,206.04 L 297.2571,145.35 L 236.0571,145.35 z " />
   <path
   id="path26"
   d="M 410.9143,145.35 L 410.9143,206.04 L 472.1143,206.04 L 472.1143,145.35 L 410.9143,145.35 z " />
  </g><g
   id="g28"
   style="fill:#0000ff;fill-rule:nonzero"
   transform="matrix(1,0,0,-1,0,612)"
   inkscape:export-filename="/home/cananian/Harpoon/Design/Figures/phd-counter-instr-2.png"
   inkscape:export-xdpi="172.78999"
   inkscape:export-ydpi="172.78999">
   <path
   id="path30"
   d="M 236.0571,206.04 L 236.0571,216.75 L 297.2571,216.75 L 297.2571,206.04 L 236.0571,206.04 z " />
   <path
   id="path32"
   d="M 410.9143,206.04 L 410.9143,216.75 L 472.1143,216.75 L 472.1143,206.04 L 410.9143,206.04 z " />
  </g><g
   id="g34"
   style="fill:#ffff00;fill-rule:nonzero"
   transform="matrix(1,0,0,-1,0,612)"
   inkscape:export-filename="/home/cananian/Harpoon/Design/Figures/phd-counter-instr-2.png"
   inkscape:export-xdpi="172.78999"
   inkscape:export-ydpi="172.78999">
   <path
   id="path36"
   d="M 236.0571,216.75 L 236.0571,263.16 L 297.2571,263.16 L 297.2571,216.75 L 236.0571,216.75 z " />
   <path
   id="path38"
   d="M 410.9143,216.75 L 410.9143,263.16 L 472.1143,263.16 L 472.1143,216.75 L 410.9143,216.75 z " />
  </g><g
   id="g40"
   style="fill:#bc8f8f;fill-rule:nonzero"
   transform="matrix(1,0,0,-1,0,612)"
   inkscape:export-filename="/home/cananian/Harpoon/Design/Figures/phd-counter-instr-2.png"
   inkscape:export-xdpi="172.78999"
   inkscape:export-ydpi="172.78999">
   <path
   id="path42"
   d="M 236.0571,263.16 L 236.0571,323.85 L 297.2571,323.85 L 297.2571,263.16 L 236.0571,263.16 z " />
   <path
   id="path44"
   d="M 410.9143,263.16 L 410.9143,323.85 L 472.1143,323.85 L 472.1143,263.16 L 410.9143,263.16 z " />
  </g><g
   id="g58"
   style="fill:none;stroke:#000000;stroke-width:0.91799998;stroke-linecap:butt;stroke-linejoin:miter;stroke-dasharray:none"
   transform="matrix(1,0,0,-1,0,612)"
   inkscape:export-filename="/home/cananian/Harpoon/Design/Figures/phd-counter-instr-2.png"
   inkscape:export-xdpi="172.78999"
   inkscape:export-ydpi="172.78999">
   <path
   id="path60"
   d="M 91.8,91.8 L 703.8,91.8" />
   <path
   id="path62"
   d="M 91.8,520.2 L 703.8,520.2" />
  </g><g
   id="g64"
   style="fill:#993333;fill-rule:nonzero;fill-opacity:1"
   transform="matrix(1,0,0,-1,0,612)"
   inkscape:export-filename="/home/cananian/Harpoon/Design/Figures/phd-counter-instr-2.png"
   inkscape:export-xdpi="172.78999"
   inkscape:export-ydpi="172.78999">
   <text
   id="text66"
   transform="matrix(2.8e-2,0,0,-2.8e-2,225.6571,73.68)"
   style="font-size:612px;font-style:normal;font-weight:normal;font-family:Times &quot;, &quot; Nimbus Roman No9 L;fill:#993333;fill-opacity:1">Unmodified</text>

   <text
   id="text68"
   transform="matrix(2.8e-2,0,0,-2.8e-2,397.5143,73.68)"
   style="font-size:612px;font-style:normal;font-weight:normal;font-family:Times &quot;, &quot; Nimbus Roman No9 L;fill:#993333;fill-opacity:1">With Checks</text>

  </g><g
   id="g70"
   style="fill:none;stroke:#000000;stroke-width:0.91799998;stroke-linecap:butt;stroke-linejoin:miter;stroke-dasharray:none"
   transform="matrix(1,0,0,-1,0,612)"
   inkscape:export-filename="/home/cananian/Harpoon/Design/Figures/phd-counter-instr-2.png"
   inkscape:export-xdpi="172.78999"
   inkscape:export-ydpi="172.78999">
   <path
   id="path72"
   d="M 91.8,91.8 L 91.8,520.2" />
   <path
   id="path74"
   d="M 703.8,91.8 L 703.8,520.2" />
   <path
   id="path76"
   d="M 91.8,127.5 L 97.92,127.5" />
   <path
   id="path78"
   d="M 703.8,127.5 L 697.68,127.5" />
   <path
   id="path80"
   d="M 91.8,198.9 L 97.92,198.9" />
   <path
   id="path82"
   d="M 703.8,198.9 L 697.68,198.9" />
   <path
   id="path84"
   d="M 91.8,270.3 L 97.92,270.3" />
   <path
   id="path86"
   d="M 703.8,270.3 L 697.68,270.3" />
   <path
   id="path88"
   d="M 91.8,341.7 L 97.92,341.7" />
   <path
   id="path90"
   d="M 703.8,341.7 L 697.68,341.7" />
   <path
   id="path92"
   d="M 91.8,413.1 L 97.92,413.1" />
   <path
   id="path94"
   d="M 703.8,413.1 L 697.68,413.1" />
   <path
   id="path96"
   d="M 91.8,484.5 L 97.92,484.5" />
   <path
   id="path98"
   d="M 703.8,484.5 L 697.68,484.5" />
   <path
   id="path100"
   d="M 91.8,91.8 L 104.04,91.8" />
   <path
   id="path102"
   d="M 703.8,91.8 L 691.56,91.8" />
   <path
   id="path104"
   d="M 91.8,163.2 L 104.04,163.2" />
   <path
   id="path106"
   d="M 703.8,163.2 L 691.56,163.2" />
   <path
   id="path108"
   d="M 91.8,234.6 L 104.04,234.6" />
   <path
   id="path110"
   d="M 703.8,234.6 L 691.56,234.6" />
   <path
   id="path112"
   d="M 91.8,306 L 104.04,306" />
   <path
   id="path114"
   d="M 703.8,306 L 691.56,306" />
   <path
   id="path116"
   d="M 91.8,377.4 L 104.04,377.4" />
   <path
   id="path118"
   d="M 703.8,377.4 L 691.56,377.4" />
   <path
   id="path120"
   d="M 91.8,448.8 L 104.04,448.8" />
   <path
   id="path122"
   d="M 703.8,448.8 L 691.56,448.8" />
   <path
   id="path124"
   d="M 91.8,520.2 L 104.04,520.2" />
   <path
   id="path126"
   d="M 703.8,520.2 L 691.56,520.2" />
  </g><text
   style="font-size:17.13599968px;font-style:normal;font-weight:normal;fill:#000000;fill-rule:nonzero;font-family:Times &quot;, &quot; Nimbus Roman No9 L"
   id="text130"
   x="77.68"
   y="525.70001"
   inkscape:export-filename="/home/cananian/Harpoon/Design/Figures/phd-counter-instr-2.png"
   inkscape:export-xdpi="172.78999"
   inkscape:export-ydpi="172.78999">0</text>
<text
   style="font-size:17.13599968px;font-style:normal;font-weight:normal;fill:#000000;fill-rule:nonzero;font-family:Times &quot;, &quot; Nimbus Roman No9 L"
   id="text132"
   x="68.68"
   y="454.29999"
   inkscape:export-filename="/home/cananian/Harpoon/Design/Figures/phd-counter-instr-2.png"
   inkscape:export-xdpi="172.78999"
   inkscape:export-ydpi="172.78999">20</text>
<text
   style="font-size:17.13599968px;font-style:normal;font-weight:normal;fill:#000000;fill-rule:nonzero;font-family:Times &quot;, &quot; Nimbus Roman No9 L"
   id="text134"
   x="68.68"
   y="382.89999"
   inkscape:export-filename="/home/cananian/Harpoon/Design/Figures/phd-counter-instr-2.png"
   inkscape:export-xdpi="172.78999"
   inkscape:export-ydpi="172.78999">40</text>
<text
   style="font-size:17.13599968px;font-style:normal;font-weight:normal;fill:#000000;fill-rule:nonzero;font-family:Times &quot;, &quot; Nimbus Roman No9 L"
   id="text136"
   x="68.68"
   y="312"
   inkscape:export-filename="/home/cananian/Harpoon/Design/Figures/phd-counter-instr-2.png"
   inkscape:export-xdpi="172.78999"
   inkscape:export-ydpi="172.78999">60</text>
<text
   style="font-size:17.13599968px;font-style:normal;font-weight:normal;fill:#000000;fill-rule:nonzero;font-family:Times &quot;, &quot; Nimbus Roman No9 L"
   id="text138"
   x="68.68"
   y="240.10001"
   inkscape:export-filename="/home/cananian/Harpoon/Design/Figures/phd-counter-instr-2.png"
   inkscape:export-xdpi="172.78999"
   inkscape:export-ydpi="172.78999">80</text>
<text
   style="font-size:17.13599968px;font-style:normal;font-weight:normal;fill:#000000;fill-rule:nonzero;font-family:Times &quot;, &quot; Nimbus Roman No9 L"
   id="text140"
   x="60.68"
   y="169.2"
   inkscape:export-filename="/home/cananian/Harpoon/Design/Figures/phd-counter-instr-2.png"
   inkscape:export-xdpi="172.78999"
   inkscape:export-ydpi="172.78999">100</text>
<text
   style="font-size:17.13599968px;font-style:normal;font-weight:normal;fill:#000000;fill-rule:nonzero;font-family:Times &quot;, &quot; Nimbus Roman No9 L"
   id="text142"
   x="60.68"
   y="97.800003"
   inkscape:export-filename="/home/cananian/Harpoon/Design/Figures/phd-counter-instr-2.png"
   inkscape:export-xdpi="172.78999"
   inkscape:export-ydpi="172.78999">120</text>
<text
   style="font-size:17.13599968px;font-style:normal;font-weight:normal;fill:#993333;fill-rule:nonzero;font-family:Times &quot;, &quot; Nimbus Roman No9 L;fill-opacity:1"
   transform="matrix(0,-1,1,0,0,0)"
   id="text144"
   x="-417"
   y="50.560001"
   inkscape:export-filename="/home/cananian/Harpoon/Design/Figures/phd-counter-instr-2.png"
   inkscape:export-xdpi="172.78999"
   inkscape:export-ydpi="172.78999">Percent of Dynamic Instructions</text>
<g
   id="g146"
   style="fill:none;stroke:#000000;stroke-width:0.91799998;stroke-linecap:butt;stroke-linejoin:miter;stroke-dasharray:none"
   transform="matrix(1,0,0,-1,0,612)"
   inkscape:export-filename="/home/cananian/Harpoon/Design/Figures/phd-counter-instr-2.png"
   inkscape:export-xdpi="172.78999"
   inkscape:export-ydpi="172.78999">
   <path
   id="path148"
   d="M 91.8,91.8 L 91.8,520.2 L 703.8,520.2 L 703.8,91.8 L 91.8,91.8 z " />
  </g><g
   id="g150"
   style="fill:#ffffff;fill-rule:nonzero"
   transform="matrix(1,0,0,-1,0,612)"
   inkscape:export-filename="/home/cananian/Harpoon/Design/Figures/phd-counter-instr-2.png"
   inkscape:export-xdpi="172.78999"
   inkscape:export-ydpi="172.78999">
   <path
   id="path152"
   d="M 501.84,489.6 L 501.84,331.4 L 677.64,331.4 L 677.64,489.6 L 501.84,489.6 z " />
  </g><g
   id="g154"
   style="fill:none;stroke:#000000;stroke-width:0.91799998;stroke-linecap:butt;stroke-linejoin:miter;stroke-dasharray:none"
   transform="matrix(1,0,0,-1,0,612)"
   inkscape:export-filename="/home/cananian/Harpoon/Design/Figures/phd-counter-instr-2.png"
   inkscape:export-xdpi="172.78999"
   inkscape:export-ydpi="172.78999">
   <path
   id="path156"
   d="M 501.84,489.6 L 501.84,331.4 L 677.64,331.4 L 677.64,489.6 L 501.84,489.6 z " />
  </g><g
   id="g158"
   style="fill:#000000;fill-rule:nonzero"
   transform="matrix(1,0,0,-1,0,612)"
   inkscape:export-filename="/home/cananian/Harpoon/Design/Figures/phd-counter-instr-2.png"
   inkscape:export-xdpi="172.78999"
   inkscape:export-ydpi="172.78999">
   <text
   id="text160"
   transform="matrix(2.8e-2,0,0,-2.8e-2,587.52,471.48)"
   style="font-size:612px;font-style:normal;font-weight:normal;font-family:Times &quot;, &quot; Nimbus Roman No9 L">Logical Ops</text>

  </g><g
   id="g162"
   style="fill:#000000;fill-rule:nonzero"
   transform="matrix(1,0,0,-1,0,612)"
   inkscape:export-filename="/home/cananian/Harpoon/Design/Figures/phd-counter-instr-2.png"
   inkscape:export-xdpi="172.78999"
   inkscape:export-ydpi="172.78999">
   <path
   id="path164"
   d="M 507.96,469.36 L 507.96,481.6 L 569.16,481.6 L 569.16,469.36 L 507.96,469.36 z " />
   <text
   id="text166"
   transform="matrix(2.8e-2,0,0,-2.8e-2,587.52,449.36)"
   style="font-size:612px;font-style:normal;font-weight:normal;font-family:Times &quot;, &quot; Nimbus Roman No9 L">Call/Return</text>

  </g><g
   id="g168"
   style="fill:#ff0000;fill-rule:nonzero"
   transform="matrix(1,0,0,-1,0,612)"
   inkscape:export-filename="/home/cananian/Harpoon/Design/Figures/phd-counter-instr-2.png"
   inkscape:export-xdpi="172.78999"
   inkscape:export-ydpi="172.78999">
   <path
   id="path170"
   d="M 507.96,449.24 L 507.96,461.48 L 569.16,461.48 L 569.16,449.24 L 507.96,449.24 z " />
  </g><g
   id="g172"
   style="fill:#000000;fill-rule:nonzero"
   transform="matrix(1,0,0,-1,0,612)"
   inkscape:export-filename="/home/cananian/Harpoon/Design/Figures/phd-counter-instr-2.png"
   inkscape:export-xdpi="172.78999"
   inkscape:export-ydpi="172.78999">
   <text
   id="text174"
   transform="matrix(2.8e-2,0,0,-2.8e-2,587.52,431.24)"
   style="font-size:612px;font-style:normal;font-weight:normal;font-family:Times &quot;, &quot; Nimbus Roman No9 L">Branches</text>

  </g><g
   id="g176"
   style="fill:#00ff00;fill-rule:nonzero"
   transform="matrix(1,0,0,-1,0,612)"
   inkscape:export-filename="/home/cananian/Harpoon/Design/Figures/phd-counter-instr-2.png"
   inkscape:export-xdpi="172.78999"
   inkscape:export-ydpi="172.78999">
   <path
   id="path178"
   d="M 507.96,431.12 L 507.96,443.36 L 569.16,443.36 L 569.16,431.12 L 507.96,431.12 z " />
  </g><g
   id="g180"
   style="fill:#000000;fill-rule:nonzero"
   transform="matrix(1,0,0,-1,0,612)"
   inkscape:export-filename="/home/cananian/Harpoon/Design/Figures/phd-counter-instr-2.png"
   inkscape:export-xdpi="172.78999"
   inkscape:export-ydpi="172.78999">
   <text
   id="text182"
   transform="matrix(2.8e-2,0,0,-2.8e-2,587.52,413.12)"
   style="font-size:612px;font-style:normal;font-weight:normal;font-family:Times &quot;, &quot; Nimbus Roman No9 L">Imm. Load</text>

  </g><g
   id="g184"
   style="fill:#0000ff;fill-rule:nonzero"
   transform="matrix(1,0,0,-1,0,612)"
   inkscape:export-filename="/home/cananian/Harpoon/Design/Figures/phd-counter-instr-2.png"
   inkscape:export-xdpi="172.78999"
   inkscape:export-ydpi="172.78999">
   <path
   id="path186"
   d="M 507.96,413 L 507.96,425.24 L 569.16,425.24 L 569.16,413 L 507.96,413 z " />
  </g><g
   id="g188"
   style="fill:#000000;fill-rule:nonzero"
   transform="matrix(1,0,0,-1,0,612)"
   inkscape:export-filename="/home/cananian/Harpoon/Design/Figures/phd-counter-instr-2.png"
   inkscape:export-xdpi="172.78999"
   inkscape:export-ydpi="172.78999">
   <text
   id="text190"
   transform="matrix(2.8e-2,0,0,-2.8e-2,587.52,396)"
   style="font-size:612px;font-style:normal;font-weight:normal;font-family:Times &quot;, &quot; Nimbus Roman No9 L">Compares</text>

  </g><g
   id="g192"
   style="fill:#ffff00;fill-rule:nonzero"
   transform="matrix(1,0,0,-1,0,612)"
   inkscape:export-filename="/home/cananian/Harpoon/Design/Figures/phd-counter-instr-2.png"
   inkscape:export-xdpi="172.78999"
   inkscape:export-ydpi="172.78999">
   <path
   id="path194"
   d="M 507.96,393.38 L 507.96,405.62 L 569.16,405.62 L 569.16,393.38 L 507.96,393.38 z " />
  </g><g
   id="g196"
   style="fill:#000000;fill-rule:nonzero"
   transform="matrix(1,0,0,-1,0,612)"
   inkscape:export-filename="/home/cananian/Harpoon/Design/Figures/phd-counter-instr-2.png"
   inkscape:export-xdpi="172.78999"
   inkscape:export-ydpi="172.78999">
   <text
   id="text198"
   transform="matrix(2.8e-2,0,0,-2.8e-2,587.52,373.88)"
   style="font-size:612px;font-style:normal;font-weight:normal;font-family:Times &quot;, &quot; Nimbus Roman No9 L">Arithmetic</text>

  </g><g
   id="g200"
   style="fill:#bc8f8f;fill-rule:nonzero"
   transform="matrix(1,0,0,-1,0,612)"
   inkscape:export-filename="/home/cananian/Harpoon/Design/Figures/phd-counter-instr-2.png"
   inkscape:export-xdpi="172.78999"
   inkscape:export-ydpi="172.78999">
   <path
   id="path202"
   d="M 507.96,373.76 L 507.96,386 L 569.16,386 L 569.16,373.76 L 507.96,373.76 z " />
  </g><g
   id="g204"
   style="fill:#000000;fill-rule:nonzero"
   transform="matrix(1,0,0,-1,0,612)"
   inkscape:export-filename="/home/cananian/Harpoon/Design/Figures/phd-counter-instr-2.png"
   inkscape:export-xdpi="172.78999"
   inkscape:export-ydpi="172.78999">
   <text
   id="text206"
   transform="matrix(2.8e-2,0,0,-2.8e-2,587.52,355.76)"
   style="font-size:612px;font-style:normal;font-weight:normal;font-family:Times &quot;, &quot; Nimbus Roman No9 L">Load</text>

  </g><g
   id="g3589"
   inkscape:export-filename="/home/cananian/Harpoon/Design/Figures/phd-counter-instr-2.png"
   inkscape:export-xdpi="172.78999"
   inkscape:export-ydpi="172.78999"><g
     transform="matrix(1,0,0,-1,0,612)"
     style="fill:#993333;fill-rule:nonzero;fill-opacity:1"
     id="g46">
   <path
   style="fill:#993333;fill-opacity:1"
   d="M 236.0571,323.85 L 236.0571,416.67 L 297.2571,416.67 L 297.2571,323.85 L 236.0571,323.85 z "
   id="path48" />
   <path
   style="fill:#993333;fill-opacity:1"
   d="M 410.9143,323.85 L 410.9143,429.879 L 472.1143,429.879 L 472.1143,323.85 L 410.9143,323.85 z "
   id="path50" />
  </g><g
     transform="matrix(1,0,0,-1,0,612)"
     style="fill:#993333;fill-rule:nonzero;fill-opacity:1"
     id="g208">
   <path
   style="fill:#993333;fill-opacity:1"
   d="M 507.96,355.64 L 507.96,367.88 L 569.16,367.88 L 569.16,355.64 L 507.96,355.64 z "
   id="path210" />
  </g></g><g
   id="g212"
   style="fill:#000000;fill-rule:nonzero"
   transform="matrix(1,0,0,-1,0,612)"
   inkscape:export-filename="/home/cananian/Harpoon/Design/Figures/phd-counter-instr-2.png"
   inkscape:export-xdpi="172.78999"
   inkscape:export-ydpi="172.78999">
   <text
   id="text214"
   transform="matrix(2.8e-2,0,0,-2.8e-2,587.52,337.64)"
   style="font-size:612px;font-style:normal;font-weight:normal;font-family:Times &quot;, &quot; Nimbus Roman No9 L">Stores</text>

  </g><g
   id="g3596"
   inkscape:export-filename="/home/cananian/Harpoon/Design/Figures/phd-counter-instr-2.png"
   inkscape:export-xdpi="172.78999"
   inkscape:export-ydpi="172.78999"><g
     transform="matrix(1,0,0,-1,0,612)"
     style="fill:#ca5200;fill-rule:nonzero;fill-opacity:1"
     id="g52">
   <path
   style="fill:#ca5200;fill-opacity:1"
   d="M 236.0571,416.67 L 236.0571,448.8 L 297.2571,448.8 L 297.2571,416.67 L 236.0571,416.67 z "
   id="path54" />
   <path
   style="fill:#ca5200;fill-opacity:1"
   d="M 410.9143,429.879 L 410.9143,503.421 L 472.1143,503.421 L 472.1143,429.879 L 410.9143,429.879 z "
   id="path56" />
  </g><g
     transform="matrix(1,0,0,-1,0,612)"
     style="fill:#ca5200;fill-rule:nonzero;fill-opacity:1"
     id="g216">
   <path
   style="fill:#ca5200;fill-opacity:1"
   d="M 507.96,337.52 L 507.96,349.76 L 569.16,349.76 L 569.16,337.52 L 507.96,337.52 z "
   id="path218" />
  </g></g>
<g
   inkscape:groupmode="layer"
   id="layer1"
   inkscape:label="Main"
   style="display:inline" /><g
   inkscape:groupmode="layer"
   id="layer2"
   inkscape:label="Hidden"
   style="display:none"><text
     style="font-size:25.70400047px;font-style:normal;font-weight:normal;fill:#000000;fill-rule:nonzero;font-family:Times &quot;, &quot; Nimbus Roman No9 L"
     id="text222"
     x="311.79999"
     y="55.080002">Check Overhead</text>
<text
     style="font-size:17.13599968px;font-style:normal;font-weight:normal;fill:#000000;fill-rule:nonzero;font-family:Times &quot;, &quot; Nimbus Roman No9 L"
     id="text224"
     x="294.79999"
     y="75.559998">as part of total instruction mix</text>
</g></svg>