<?xml version="1.0" encoding="UTF-8" standalone="no"?>
<!-- generated by Grace-5.1.21 -->
<svg
   xmlns:dc="http://purl.org/dc/elements/1.1/"
   xmlns:cc="http://web.resource.org/cc/"
   xmlns:rdf="http://www.w3.org/1999/02/22-rdf-syntax-ns#"
   xmlns:svg="http://www.w3.org/2000/svg"
   xmlns="http://www.w3.org/2000/svg"
   xmlns:sodipodi="http://sodipodi.sourceforge.net/DTD/sodipodi-0.dtd"
   xmlns:inkscape="http://www.inkscape.org/namespaces/inkscape"
   xml:space="preserve"
   width="11.0000in"
   height="8.5000in"
   viewBox="0.0000 0.0000 792.0000 612.0000"
   id="svg2"
   sodipodi:version="0.32"
   inkscape:version="0.45"
   sodipodi:docname="phd-spec-nt.svg"
   sodipodi:docbase="/home/cananian/Harpoon/Design/Figures"
   inkscape:output_extension="org.inkscape.output.svg.inkscape"
   sodipodi:modified="TRUE"><metadata
   id="metadata225"><rdf:RDF><cc:Work
       rdf:about=""><dc:format>image/svg+xml</dc:format><dc:type
         rdf:resource="http://purl.org/dc/dcmitype/StillImage" /></cc:Work></rdf:RDF></metadata><defs
   id="defs223">
  
  
  
  
  
  
  
  
  
  
  
  
  
  
  
  
  
  
  
 
   
   
   
   
   
  </defs><sodipodi:namedview
   inkscape:window-height="588"
   inkscape:window-width="790"
   inkscape:pageshadow="2"
   inkscape:pageopacity="0.0"
   guidetolerance="10.0"
   gridtolerance="10.0"
   objecttolerance="10.0"
   borderopacity="1.0"
   bordercolor="#666666"
   pagecolor="#ffffff"
   id="base"
   inkscape:zoom="0.49673203"
   inkscape:cx="495"
   inkscape:cy="380.48684"
   inkscape:window-x="413"
   inkscape:window-y="80"
   inkscape:current-layer="svg2" />
 <g
   id="g10"
   style="fill:#000000;fill-rule:nonzero"
   transform="matrix(1,0,0,-1,0,612)"
   inkscape:export-filename="/home/cananian/Harpoon/Design/Figures/phd-spec-nt.png"
   inkscape:export-xdpi="178.41"
   inkscape:export-ydpi="178.41">
   <path
   id="path12"
   d="M 169.473,92.259 L 169.473,234.6 L 193.035,234.6 L 193.035,92.259 L 169.473,92.259 z " />
   <path
   id="path14"
   d="M 271.473,92.259 L 271.473,234.6 L 295.035,234.6 L 295.035,92.259 L 271.473,92.259 z " />
   <path
   id="path16"
   d="M 373.473,92.259 L 373.473,234.6 L 397.035,234.6 L 397.035,92.259 L 373.473,92.259 z " />
   <path
   id="path18"
   d="M 475.473,92.259 L 475.473,234.6 L 499.035,234.6 L 499.035,92.259 L 475.473,92.259 z " />
   <path
   id="path20"
   d="M 577.473,92.259 L 577.473,234.6 L 601.035,234.6 L 601.035,92.259 L 577.473,92.259 z " />
  </g><g
   id="g22"
   style="fill:none;stroke:#000000;stroke-width:0.91799998;stroke-linecap:butt;stroke-linejoin:miter;stroke-dasharray:none"
   transform="matrix(1,0,0,-1,0,612)"
   inkscape:export-filename="/home/cananian/Harpoon/Design/Figures/phd-spec-nt.png"
   inkscape:export-xdpi="178.41"
   inkscape:export-ydpi="178.41">
   <path
   id="path24"
   d="M 169.473,92.259 L 169.473,234.6 L 193.035,234.6 L 193.035,92.259 L 169.473,92.259 z " />
   <path
   id="path26"
   d="M 271.473,92.259 L 271.473,234.6 L 295.035,234.6 L 295.035,92.259 L 271.473,92.259 z " />
   <path
   id="path28"
   d="M 373.473,92.259 L 373.473,234.6 L 397.035,234.6 L 397.035,92.259 L 373.473,92.259 z " />
   <path
   id="path30"
   d="M 475.473,92.259 L 475.473,234.6 L 499.035,234.6 L 499.035,92.259 L 475.473,92.259 z " />
   <path
   id="path32"
   d="M 577.473,92.259 L 577.473,234.6 L 601.035,234.6 L 601.035,92.259 L 577.473,92.259 z " />
  </g><g
   id="g34"
   style="fill:#ca5200;fill-rule:nonzero;fill-opacity:1"
   transform="matrix(1,0,0,-1,0,612)"
   inkscape:export-filename="/home/cananian/Harpoon/Design/Figures/phd-spec-nt.png"
   inkscape:export-xdpi="178.41"
   inkscape:export-ydpi="178.41">
   <path
   id="path36"
   d="M 194.565,92.259 L 194.565,321.708 L 218.127,321.708 L 218.127,92.259 L 194.565,92.259 z "
   style="fill:#ca5200;fill-opacity:1" />
   <path
   id="path38"
   d="M 296.565,92.259 L 296.565,261.732 L 320.127,261.732 L 320.127,92.259 L 296.565,92.259 z "
   style="fill:#ca5200;fill-opacity:1" />
   <path
   id="path40"
   d="M 398.565,92.259 L 398.565,311.712 L 422.127,311.712 L 422.127,92.259 L 398.565,92.259 z "
   style="fill:#ca5200;fill-opacity:1" />
   <path
   id="path42"
   d="M 500.565,92.259 L 500.565,447.372 L 524.127,447.372 L 524.127,92.259 L 500.565,92.259 z "
   style="fill:#ca5200;fill-opacity:1" />
   <path
   id="path44"
   d="M 602.565,92.259 L 602.565,325.992 L 626.127,325.992 L 626.127,92.259 L 602.565,92.259 z "
   style="fill:#ca5200;fill-opacity:1" />
  </g><g
   id="g46"
   style="fill:none;stroke:#000000;stroke-width:0.91799998;stroke-linecap:butt;stroke-linejoin:miter;stroke-dasharray:none"
   transform="matrix(1,0,0,-1,0,612)"
   inkscape:export-filename="/home/cananian/Harpoon/Design/Figures/phd-spec-nt.png"
   inkscape:export-xdpi="178.41"
   inkscape:export-ydpi="178.41">
   <path
   id="path48"
   d="M 194.565,92.259 L 194.565,321.708 L 218.127,321.708 L 218.127,92.259 L 194.565,92.259 z " />
   <path
   id="path50"
   d="M 296.565,92.259 L 296.565,261.732 L 320.127,261.732 L 320.127,92.259 L 296.565,92.259 z " />
   <path
   id="path52"
   d="M 398.565,92.259 L 398.565,311.712 L 422.127,311.712 L 422.127,92.259 L 398.565,92.259 z " />
   <path
   id="path54"
   d="M 500.565,92.259 L 500.565,447.372 L 524.127,447.372 L 524.127,92.259 L 500.565,92.259 z " />
   <path
   id="path56"
   d="M 602.565,92.259 L 602.565,325.992 L 626.127,325.992 L 626.127,92.259 L 602.565,92.259 z " />
  </g><g
   id="g58"
   style="fill:#000000;fill-rule:nonzero"
   transform="matrix(1,0,0,-1,0,612)"
   inkscape:export-filename="/home/cananian/Harpoon/Design/Figures/phd-spec-nt.png"
   inkscape:export-xdpi="178.41"
   inkscape:export-ydpi="178.41">
   <text
   id="text60"
   transform="matrix(2.8e-2,0,0,-2.8e-2,192.346,321.708)"
   style="font-size:612px;font-style:normal;font-weight:normal;font-family:Times &quot;, &quot; Nimbus Roman No9 L">1.61</text>

   <text
   id="text62"
   transform="matrix(2.8e-2,0,0,-2.8e-2,293.846,261.732)"
   style="font-size:612px;font-style:normal;font-weight:normal;font-family:Times &quot;, &quot; Nimbus Roman No9 L">1.19</text>

   <text
   id="text64"
   transform="matrix(2.8e-2,0,0,-2.8e-2,395.846,311.712)"
   style="font-size:612px;font-style:normal;font-weight:normal;font-family:Times &quot;, &quot; Nimbus Roman No9 L">1.54</text>

   <text
   id="text66"
   transform="matrix(2.8e-2,0,0,-2.8e-2,497.846,447.372)"
   style="font-size:612px;font-style:normal;font-weight:normal;font-family:Times &quot;, &quot; Nimbus Roman No9 L">2.49</text>

   <text
   id="text68"
   transform="matrix(2.8e-2,0,0,-2.8e-2,599.846,325.992)"
   style="font-size:612px;font-style:normal;font-weight:normal;font-family:Times &quot;, &quot; Nimbus Roman No9 L">1.64</text>

  </g><g
   id="g70"
   style="fill:none;stroke:#000000;stroke-width:0.91799998;stroke-linecap:butt;stroke-linejoin:miter;stroke-dasharray:none"
   transform="matrix(1,0,0,-1,0,612)"
   inkscape:export-filename="/home/cananian/Harpoon/Design/Figures/phd-spec-nt.png"
   inkscape:export-xdpi="178.41"
   inkscape:export-ydpi="178.41">
   <path
   id="path72"
   d="M 91.8,91.8 L 703.8,91.8" />
   <path
   id="path74"
   d="M 91.8,520.2 L 703.8,520.2" />
  </g><g
   id="g76"
   style="fill:#000000;fill-rule:nonzero"
   transform="matrix(1,0,0,-1,0,612)"
   inkscape:export-filename="/home/cananian/Harpoon/Design/Figures/phd-spec-nt.png"
   inkscape:export-xdpi="178.41"
   inkscape:export-ydpi="178.41">
   <text
   id="text78"
   transform="matrix(2.8e-2,0,0,-2.8e-2,181.8,74.68)"
   style="font-size:612px;font-style:normal;font-weight:normal;font-family:Times &quot;, &quot; Nimbus Roman No9 L">jess</text>

   <text
   id="text80"
   transform="matrix(2.8e-2,0,0,-2.8e-2,287.3,73.68)"
   style="font-size:612px;font-style:normal;font-weight:normal;font-family:Times &quot;, &quot; Nimbus Roman No9 L">db</text>

   <text
   id="text82"
   transform="matrix(2.8e-2,0,0,-2.8e-2,380.3,74.68)"
   style="font-size:612px;font-style:normal;font-weight:normal;font-family:Times &quot;, &quot; Nimbus Roman No9 L">javac</text>

   <text
   id="text84"
   transform="matrix(2.8e-2,0,0,-2.8e-2,461.8,73.68)"
   style="font-size:612px;font-style:normal;font-weight:normal;font-family:Times &quot;, &quot; Nimbus Roman No9 L">mpegaudio</text>

   <text
   id="text86"
   transform="matrix(2.8e-2,0,0,-2.8e-2,587.8,73.68)"
   style="font-size:612px;font-style:normal;font-weight:normal;font-family:Times &quot;, &quot; Nimbus Roman No9 L">jack</text>

  </g><g
   id="g88"
   style="fill:none;stroke:#000000;stroke-width:0.91799998;stroke-linecap:butt;stroke-linejoin:miter;stroke-dasharray:none"
   transform="matrix(1,0,0,-1,0,612)"
   inkscape:export-filename="/home/cananian/Harpoon/Design/Figures/phd-spec-nt.png"
   inkscape:export-xdpi="178.41"
   inkscape:export-ydpi="178.41">
   <path
   id="path90"
   d="M 91.8,91.8 L 91.8,520.2" />
   <path
   id="path92"
   d="M 703.8,91.8 L 703.8,520.2" />
   <path
   id="path94"
   d="M 91.8,115.6 L 97.92,115.6" />
   <path
   id="path96"
   d="M 703.8,115.6 L 697.68,115.6" />
   <path
   id="path98"
   d="M 91.8,139.4 L 97.92,139.4" />
   <path
   id="path100"
   d="M 703.8,139.4 L 697.68,139.4" />
   <path
   id="path102"
   d="M 91.8,163.2 L 97.92,163.2" />
   <path
   id="path104"
   d="M 703.8,163.2 L 697.68,163.2" />
   <path
   id="path106"
   d="M 91.8,187 L 97.92,187" />
   <path
   id="path108"
   d="M 703.8,187 L 697.68,187" />
   <path
   id="path110"
   d="M 91.8,210.8 L 97.92,210.8" />
   <path
   id="path112"
   d="M 703.8,210.8 L 697.68,210.8" />
   <path
   id="path114"
   d="M 91.8,258.4 L 97.92,258.4" />
   <path
   id="path116"
   d="M 703.8,258.4 L 697.68,258.4" />
   <path
   id="path118"
   d="M 91.8,282.2 L 97.92,282.2" />
   <path
   id="path120"
   d="M 703.8,282.2 L 697.68,282.2" />
   <path
   id="path122"
   d="M 91.8,306 L 97.92,306" />
   <path
   id="path124"
   d="M 703.8,306 L 697.68,306" />
   <path
   id="path126"
   d="M 91.8,329.8 L 97.92,329.8" />
   <path
   id="path128"
   d="M 703.8,329.8 L 697.68,329.8" />
   <path
   id="path130"
   d="M 91.8,353.6 L 97.92,353.6" />
   <path
   id="path132"
   d="M 703.8,353.6 L 697.68,353.6" />
   <path
   id="path134"
   d="M 91.8,401.2 L 97.92,401.2" />
   <path
   id="path136"
   d="M 703.8,401.2 L 697.68,401.2" />
   <path
   id="path138"
   d="M 91.8,425 L 97.92,425" />
   <path
   id="path140"
   d="M 703.8,425 L 697.68,425" />
   <path
   id="path142"
   d="M 91.8,448.8 L 97.92,448.8" />
   <path
   id="path144"
   d="M 703.8,448.8 L 697.68,448.8" />
   <path
   id="path146"
   d="M 91.8,472.6 L 97.92,472.6" />
   <path
   id="path148"
   d="M 703.8,472.6 L 697.68,472.6" />
   <path
   id="path150"
   d="M 91.8,496.4 L 97.92,496.4" />
   <path
   id="path152"
   d="M 703.8,496.4 L 697.68,496.4" />
   <path
   id="path154"
   d="M 91.8,91.8 L 104.04,91.8" />
   <path
   id="path156"
   d="M 703.8,91.8 L 691.56,91.8" />
   <path
   id="path158"
   d="M 91.8,234.6 L 104.04,234.6" />
   <path
   id="path160"
   d="M 703.8,234.6 L 691.56,234.6" />
   <path
   id="path162"
   d="M 91.8,377.4 L 104.04,377.4" />
   <path
   id="path164"
   d="M 703.8,377.4 L 691.56,377.4" />
   <path
   id="path166"
   d="M 91.8,520.2 L 104.04,520.2" />
   <path
   id="path168"
   d="M 703.8,520.2 L 691.56,520.2" />
  </g><text
   style="font-size:17.13599968px;font-style:normal;font-weight:normal;fill:#000000;fill-rule:nonzero;font-family:Times &quot;, &quot; Nimbus Roman No9 L"
   id="text172"
   x="77.68"
   y="525.70001"
   inkscape:export-filename="/home/cananian/Harpoon/Design/Figures/phd-spec-nt.png"
   inkscape:export-xdpi="178.41"
   inkscape:export-ydpi="178.41">0</text>
<text
   style="font-size:17.13599968px;font-style:normal;font-weight:normal;fill:#000000;fill-rule:nonzero;font-family:Times &quot;, &quot; Nimbus Roman No9 L"
   id="text174"
   x="78.68"
   y="383.39999"
   inkscape:export-filename="/home/cananian/Harpoon/Design/Figures/phd-spec-nt.png"
   inkscape:export-xdpi="178.41"
   inkscape:export-ydpi="178.41">1</text>
<text
   style="font-size:17.13599968px;font-style:normal;font-weight:normal;fill:#000000;fill-rule:nonzero;font-family:Times &quot;, &quot; Nimbus Roman No9 L"
   id="text176"
   x="77.68"
   y="240.10001"
   inkscape:export-filename="/home/cananian/Harpoon/Design/Figures/phd-spec-nt.png"
   inkscape:export-xdpi="178.41"
   inkscape:export-ydpi="178.41">2</text>
<text
   style="font-size:17.13599968px;font-style:normal;font-weight:normal;fill:#000000;fill-rule:nonzero;font-family:Times &quot;, &quot; Nimbus Roman No9 L"
   id="text178"
   x="78.68"
   y="97.300003"
   inkscape:export-filename="/home/cananian/Harpoon/Design/Figures/phd-spec-nt.png"
   inkscape:export-xdpi="178.41"
   inkscape:export-ydpi="178.41">3</text>
<text
   style="font-size:17.13599968px;font-style:normal;font-weight:normal;fill:#993333;fill-rule:nonzero;font-family:Times &quot;, &quot; Nimbus Roman No9 L;fill-opacity:1"
   transform="matrix(0,-1,1,0,0,0)"
   id="text180"
   x="-391.5"
   y="71.559998"
   inkscape:export-filename="/home/cananian/Harpoon/Design/Figures/phd-spec-nt.png"
   inkscape:export-xdpi="178.41"
   inkscape:export-ydpi="178.41">Relative Execution Time</text>
<g
   id="g182"
   style="fill:none;stroke:#000000;stroke-width:0.91799998;stroke-linecap:butt;stroke-linejoin:miter;stroke-dasharray:none"
   transform="matrix(1,0,0,-1,0,612)"
   inkscape:export-filename="/home/cananian/Harpoon/Design/Figures/phd-spec-nt.png"
   inkscape:export-xdpi="178.41"
   inkscape:export-ydpi="178.41">
   <path
   id="path184"
   d="M 91.8,91.8 L 91.8,520.2 L 703.8,520.2 L 703.8,91.8 L 91.8,91.8 z " />
  </g><g
   id="g186"
   style="fill:#ffffff;fill-rule:nonzero"
   transform="matrix(1,0,0,-1,0,612)"
   inkscape:export-filename="/home/cananian/Harpoon/Design/Figures/phd-spec-nt.png"
   inkscape:export-xdpi="178.41"
   inkscape:export-ydpi="178.41">
   <path
   id="path188"
   d="M 550.8,495.72 L 550.8,452.702 L 677.339,452.702 L 677.339,495.72 L 550.8,495.72 z " />
  </g><g
   id="g190"
   style="fill:none;stroke:#000000;stroke-width:0.91799998;stroke-linecap:butt;stroke-linejoin:miter;stroke-dasharray:none"
   transform="matrix(1.1141492,0,0,-0.9988281,-62.848175,611.44429)"
   inkscape:export-filename="/home/cananian/Harpoon/Design/Figures/phd-spec-nt.png"
   inkscape:export-xdpi="178.41"
   inkscape:export-ydpi="178.41">
   <path
   id="path192"
   d="M 550.8,495.72 L 550.8,452.702 L 677.339,452.702 L 677.339,495.72 L 550.8,495.72 z " />
  </g><g
   id="g194"
   style="fill:#000000;fill-rule:nonzero"
   transform="matrix(1,0,0,-1,0,612)"
   inkscape:export-filename="/home/cananian/Harpoon/Design/Figures/phd-spec-nt.png"
   inkscape:export-xdpi="178.41"
   inkscape:export-ydpi="178.41">
   <text
   id="text196"
   transform="matrix(2.8e-2,0,0,-2.8e-2,600.219,477.521)"
   style="font-size:612px;font-style:normal;font-weight:normal;font-family:Times &quot;, &quot; Nimbus Roman No9 L">Base</text>

   <path
   id="path198"
   d="M 557.379,476.901 L 557.379,489.141 L 581.859,489.141 L 581.859,476.901 L 557.379,476.901 z " />
  </g><g
   id="g200"
   style="fill:none;stroke:#000000;stroke-width:0.91799998;stroke-linecap:butt;stroke-linejoin:miter;stroke-dasharray:none"
   transform="matrix(1,0,0,-1,0,612)"
   inkscape:export-filename="/home/cananian/Harpoon/Design/Figures/phd-spec-nt.png"
   inkscape:export-xdpi="178.41"
   inkscape:export-ydpi="178.41">
   <path
   id="path202"
   d="M 557.379,476.901 L 557.379,489.141 L 581.859,489.141 L 581.859,476.901 L 557.379,476.901 z " />
  </g><g
   id="g204"
   style="fill:#000000;fill-rule:nonzero"
   transform="matrix(1,0,0,-1,0,612)"
   inkscape:export-filename="/home/cananian/Harpoon/Design/Figures/phd-spec-nt.png"
   inkscape:export-xdpi="178.41"
   inkscape:export-ydpi="178.41">
   <text
   id="text206"
   transform="matrix(2.8e-2,0,0,-2.8e-2,600.219,459.401)"
   style="font-size:612px;font-style:normal;font-weight:normal;font-family:Times &quot;, &quot; Nimbus Roman No9 L">w/ Checks</text>

  </g><g
   id="g208"
   style="fill:#ca5200;fill-rule:nonzero;fill-opacity:1"
   transform="matrix(1,0,0,-1,0,612)"
   inkscape:export-filename="/home/cananian/Harpoon/Design/Figures/phd-spec-nt.png"
   inkscape:export-xdpi="178.41"
   inkscape:export-ydpi="178.41">
   <path
   id="path210"
   d="M 557.379,459.281 L 557.379,471.521 L 581.859,471.521 L 581.859,459.281 L 557.379,459.281 z "
   style="fill:#ca5200;fill-opacity:1" />
  </g><g
   id="g212"
   style="fill:none;stroke:#000000;stroke-width:0.91799998;stroke-linecap:butt;stroke-linejoin:miter;stroke-dasharray:none"
   transform="matrix(1,0,0,-1,0,612)"
   inkscape:export-filename="/home/cananian/Harpoon/Design/Figures/phd-spec-nt.png"
   inkscape:export-xdpi="178.41"
   inkscape:export-ydpi="178.41">
   <path
   id="path214"
   d="M 557.379,459.281 L 557.379,471.521 L 581.859,471.521 L 581.859,459.281 L 557.379,459.281 z " />
  </g>
<g
   inkscape:groupmode="layer"
   id="layer1"
   inkscape:label="Main"
   style="display:inline" /><g
   inkscape:groupmode="layer"
   id="layer2"
   inkscape:label="Hidden"
   style="display:none"><g
     id="g216"
     style="fill:#000000;fill-rule:nonzero"
     transform="matrix(1,0,0,-1,0,612)">
   <text
   id="text218"
   transform="matrix(4.2e-2,0,0,-4.2e-2,216.3,556.92)"
   style="font-size:612px;font-style:normal;font-weight:normal;font-family:Times &quot;, &quot; Nimbus Roman No9 L">Non-transactional Check Overhead</text>

   <text
   id="text220"
   transform="matrix(2.8e-2,0,0,-2.8e-2,355.8,536.44)"
   style="font-size:612px;font-style:normal;font-weight:normal;font-family:Times &quot;, &quot; Nimbus Roman No9 L">SPECjvm98</text>

  </g></g></svg>