<?xml version="1.0" encoding="UTF-8" standalone="no"?>
<!-- generated by Grace-5.1.21 -->
<svg
   xmlns:dc="http://purl.org/dc/elements/1.1/"
   xmlns:cc="http://web.resource.org/cc/"
   xmlns:rdf="http://www.w3.org/1999/02/22-rdf-syntax-ns#"
   xmlns:svg="http://www.w3.org/2000/svg"
   xmlns="http://www.w3.org/2000/svg"
   xmlns:sodipodi="http://sodipodi.sourceforge.net/DTD/sodipodi-0.dtd"
   xmlns:inkscape="http://www.inkscape.org/namespaces/inkscape"
   xml:space="preserve"
   width="11in"
   height="8.5in"
   viewBox="0 0 792 612"
   id="svg2"
   sodipodi:version="0.32"
   inkscape:version="0.45"
   sodipodi:docname="phd-spec-full.svg"
   sodipodi:docbase="/home/cananian/Harpoon/Design/Figures"
   inkscape:output_extension="org.inkscape.output.svg.inkscape"
   version="1.0"
   sodipodi:modified="TRUE"><metadata
   id="metadata217"><rdf:RDF><cc:Work
       rdf:about=""><dc:format>image/svg+xml</dc:format><dc:type
         rdf:resource="http://purl.org/dc/dcmitype/StillImage" /></cc:Work></rdf:RDF></metadata><defs
   id="defs215">
 <desc
   id="desc6" />
  
  
  
  
  
  
  
  
  
  
  
  
  
  
  
  
  
 
   
   
   
   
   
   
   
   
   
   
  </defs><sodipodi:namedview
   inkscape:window-height="711"
   inkscape:window-width="1331"
   inkscape:pageshadow="2"
   inkscape:pageopacity="0.0"
   guidetolerance="10.0"
   gridtolerance="10.0"
   objecttolerance="10.0"
   borderopacity="1.0"
   bordercolor="#666666"
   pagecolor="#ffffff"
   id="base"
   inkscape:zoom="0.49673203"
   inkscape:cx="495"
   inkscape:cy="380.48684"
   inkscape:window-x="152"
   inkscape:window-y="128"
   inkscape:current-layer="svg2" />
 <g
   id="g8"
   style="fill:#000000;fill-rule:nonzero"
   transform="matrix(1,0,0,-1,0,612)"
   inkscape:export-filename="/home/cananian/Harpoon/Design/Figures/phd-spec-full.png"
   inkscape:export-xdpi="178.41"
   inkscape:export-ydpi="178.41">
   <path
   id="path10"
   d="M 125.46,91.8 L 125.46,142.2 L 140.76,142.2 L 140.76,91.8 L 125.46,91.8 z " />
   <path
   id="path12"
   d="M 247.86,91.8 L 247.86,142.2 L 263.16,142.2 L 263.16,91.8 L 247.86,91.8 z " />
   <path
   id="path14"
   d="M 370.26,91.8 L 370.26,142.2 L 385.56,142.2 L 385.56,91.8 L 370.26,91.8 z " />
   <path
   id="path16"
   d="M 492.66,91.8 L 492.66,142.2 L 507.96,142.2 L 507.96,91.8 L 492.66,91.8 z " />
   <path
   id="path18"
   d="M 615.06,91.8 L 615.06,142.2 L 630.36,142.2 L 630.36,91.8 L 615.06,91.8 z " />
  </g><g
   id="g20"
   style="fill:#ff0000;fill-rule:nonzero"
   transform="matrix(1,0,0,-1,0,612)"
   inkscape:export-filename="/home/cananian/Harpoon/Design/Figures/phd-spec-full.png"
   inkscape:export-xdpi="178.41"
   inkscape:export-ydpi="178.41">
   <path
   id="path22"
   d="M 143.82,91.8 L 143.82,157.32 L 159.12,157.32 L 159.12,91.8 L 143.82,91.8 z " />
   <path
   id="path24"
   d="M 266.22,91.8 L 266.22,216.288 L 281.52,216.288 L 281.52,91.8 L 266.22,91.8 z " />
   <path
   id="path26"
   d="M 388.62,91.8 L 388.62,150.768 L 403.92,150.768 L 403.92,91.8 L 388.62,91.8 z " />
   <path
   id="path28"
   d="M 511.02,91.8 L 511.02,142.704 L 526.32,142.704 L 526.32,91.8 L 511.02,91.8 z " />
   <path
   id="path30"
   d="M 633.42,91.8 L 633.42,212.256 L 648.72,212.256 L 648.72,91.8 L 633.42,91.8 z " />
  </g><g
   id="g32"
   style="fill:#0000ff;fill-rule:nonzero"
   transform="matrix(1,0,0,-1,0,612)"
   inkscape:export-filename="/home/cananian/Harpoon/Design/Figures/phd-spec-full.png"
   inkscape:export-xdpi="178.41"
   inkscape:export-ydpi="178.41">
   <path
   id="path34"
   d="M 162.18,91.8 L 162.18,251.064 L 177.48,251.064 L 177.48,91.8 L 162.18,91.8 z " />
   <path
   id="path36"
   d="M 284.58,91.8 L 284.58,435.024 L 299.88,435.024 L 299.88,91.8 L 284.58,91.8 z " />
   <path
   id="path38"
   d="M 406.98,91.8 L 406.98,321.12 L 422.28,321.12 L 422.28,91.8 L 406.98,91.8 z " />
   <path
   id="path40"
   d="M 529.38,91.8 L 529.38,307.008 L 544.68,307.008 L 544.68,91.8 L 529.38,91.8 z " />
   <path
   id="path42"
   d="M 651.78,91.8 L 651.78,489.456 L 667.08,489.456 L 667.08,91.8 L 651.78,91.8 z " />
  </g><g
   id="g44"
   style="fill:#000000;fill-rule:nonzero"
   transform="matrix(1,0,0,-1,0,607.2)"
   inkscape:export-filename="/home/cananian/Harpoon/Design/Figures/phd-spec-full.png"
   inkscape:export-xdpi="178.41"
   inkscape:export-ydpi="178.41">
   <text
   id="text46"
   transform="matrix(2.8e-2,0,0,-2.8e-2,155.33,251.064)"
   style="font-size:612px;font-style:normal;font-weight:normal;font-family:Times &quot;, &quot; Nimbus Roman No9 L">3.16</text>

   <text
   id="text48"
   transform="matrix(2.8e-2,0,0,-2.8e-2,278.23,435.024)"
   style="font-size:612px;font-style:normal;font-weight:normal;font-family:Times &quot;, &quot; Nimbus Roman No9 L">6.81</text>

   <text
   id="text50"
   transform="matrix(2.8e-2,0,0,-2.8e-2,400.13,321.12)"
   style="font-size:612px;font-style:normal;font-weight:normal;font-family:Times &quot;, &quot; Nimbus Roman No9 L">4.55</text>

   <text
   id="text52"
   transform="matrix(2.8e-2,0,0,-2.8e-2,522.53,307.008)"
   style="font-size:612px;font-style:normal;font-weight:normal;font-family:Times &quot;, &quot; Nimbus Roman No9 L">4.27</text>

   <text
   id="text54"
   transform="matrix(2.8e-2,0,0,-2.8e-2,644.93,489.456)"
   style="font-size:612px;font-style:normal;font-weight:normal;font-family:Times &quot;, &quot; Nimbus Roman No9 L">7.89</text>

  </g><g
   id="g56"
   style="fill:none;stroke:#000000;stroke-width:0.91799998;stroke-linecap:butt;stroke-linejoin:miter;stroke-dasharray:none"
   transform="matrix(1,0,0,-1,0,612)"
   inkscape:export-filename="/home/cananian/Harpoon/Design/Figures/phd-spec-full.png"
   inkscape:export-xdpi="178.41"
   inkscape:export-ydpi="178.41">
   <path
   id="path58"
   d="M 91.8,91.8 L 703.8,91.8" />
   <path
   id="path60"
   d="M 91.8,520.2 L 703.8,520.2" />
  </g><g
   id="g62"
   style="fill:#000000;fill-rule:nonzero"
   transform="matrix(1,0,0,-1,0,612)"
   inkscape:export-filename="/home/cananian/Harpoon/Design/Figures/phd-spec-full.png"
   inkscape:export-xdpi="178.41"
   inkscape:export-ydpi="178.41">
   <text
   id="text64"
   transform="matrix(2.8e-2,0,0,-2.8e-2,141,74.68)"
   style="font-size:612px;font-style:normal;font-weight:normal;font-family:Times &quot;, &quot; Nimbus Roman No9 L">jess</text>

   <text
   id="text66"
   transform="matrix(2.8e-2,0,0,-2.8e-2,266.9,73.68)"
   style="font-size:612px;font-style:normal;font-weight:normal;font-family:Times &quot;, &quot; Nimbus Roman No9 L">db</text>

   <text
   id="text68"
   transform="matrix(2.8e-2,0,0,-2.8e-2,380.3,74.68)"
   style="font-size:612px;font-style:normal;font-weight:normal;font-family:Times &quot;, &quot; Nimbus Roman No9 L">javac</text>

   <text
   id="text70"
   transform="matrix(2.8e-2,0,0,-2.8e-2,482.2,73.68)"
   style="font-size:612px;font-style:normal;font-weight:normal;font-family:Times &quot;, &quot; Nimbus Roman No9 L">mpegaudio</text>

   <text
   id="text72"
   transform="matrix(2.8e-2,0,0,-2.8e-2,628.6,73.68)"
   style="font-size:612px;font-style:normal;font-weight:normal;font-family:Times &quot;, &quot; Nimbus Roman No9 L">jack</text>

  </g><g
   id="g74"
   style="fill:none;stroke:#000000;stroke-width:0.91799998;stroke-linecap:butt;stroke-linejoin:miter;stroke-dasharray:none"
   transform="matrix(1,0,0,-1,0,612)"
   inkscape:export-filename="/home/cananian/Harpoon/Design/Figures/phd-spec-full.png"
   inkscape:export-xdpi="178.41"
   inkscape:export-ydpi="178.41">
   <path
   id="path76"
   d="M 91.8,91.8 L 91.8,520.2" />
   <path
   id="path78"
   d="M 703.8,91.8 L 703.8,520.2" />
   <path
   id="path80"
   d="M 91.8,117 L 97.92,117" />
   <path
   id="path82"
   d="M 703.8,117 L 697.68,117" />
   <path
   id="path84"
   d="M 91.8,167.4 L 97.92,167.4" />
   <path
   id="path86"
   d="M 703.8,167.4 L 697.68,167.4" />
   <path
   id="path88"
   d="M 91.8,217.8 L 97.92,217.8" />
   <path
   id="path90"
   d="M 703.8,217.8 L 697.68,217.8" />
   <path
   id="path92"
   d="M 91.8,268.2 L 97.92,268.2" />
   <path
   id="path94"
   d="M 703.8,268.2 L 697.68,268.2" />
   <path
   id="path96"
   d="M 91.8,318.6 L 97.92,318.6" />
   <path
   id="path98"
   d="M 703.8,318.6 L 697.68,318.6" />
   <path
   id="path100"
   d="M 91.8,369 L 97.92,369" />
   <path
   id="path102"
   d="M 703.8,369 L 697.68,369" />
   <path
   id="path104"
   d="M 91.8,419.4 L 97.92,419.4" />
   <path
   id="path106"
   d="M 703.8,419.4 L 697.68,419.4" />
   <path
   id="path108"
   d="M 91.8,469.8 L 97.92,469.8" />
   <path
   id="path110"
   d="M 703.8,469.8 L 697.68,469.8" />
   <path
   id="path112"
   d="M 91.8,520.2 L 97.92,520.2" />
   <path
   id="path114"
   d="M 703.8,520.2 L 697.68,520.2" />
   <path
   id="path116"
   d="M 91.8,91.8 L 104.04,91.8" />
   <path
   id="path118"
   d="M 703.8,91.8 L 691.56,91.8" />
   <path
   id="path120"
   d="M 91.8,142.2 L 104.04,142.2" />
   <path
   id="path122"
   d="M 703.8,142.2 L 691.56,142.2" />
   <path
   id="path124"
   d="M 91.8,192.6 L 104.04,192.6" />
   <path
   id="path126"
   d="M 703.8,192.6 L 691.56,192.6" />
   <path
   id="path128"
   d="M 91.8,243 L 104.04,243" />
   <path
   id="path130"
   d="M 703.8,243 L 691.56,243" />
   <path
   id="path132"
   d="M 91.8,293.4 L 104.04,293.4" />
   <path
   id="path134"
   d="M 703.8,293.4 L 691.56,293.4" />
   <path
   id="path136"
   d="M 91.8,343.8 L 104.04,343.8" />
   <path
   id="path138"
   d="M 703.8,343.8 L 691.56,343.8" />
   <path
   id="path140"
   d="M 91.8,394.2 L 104.04,394.2" />
   <path
   id="path142"
   d="M 703.8,394.2 L 691.56,394.2" />
   <path
   id="path144"
   d="M 91.8,444.6 L 104.04,444.6" />
   <path
   id="path146"
   d="M 703.8,444.6 L 691.56,444.6" />
   <path
   id="path148"
   d="M 91.8,495 L 104.04,495" />
   <path
   id="path150"
   d="M 703.8,495 L 691.56,495" />
  </g><text
   style="font-size:17.13599968px;font-style:normal;font-weight:normal;fill:#000000;fill-rule:nonzero;font-family:Times &quot;, &quot; Nimbus Roman No9 L"
   id="text154"
   x="77.68"
   y="525.70001"
   inkscape:export-filename="/home/cananian/Harpoon/Design/Figures/phd-spec-full.png"
   inkscape:export-xdpi="178.41"
   inkscape:export-ydpi="178.41">0</text>
<text
   style="font-size:17.13599968px;font-style:normal;font-weight:normal;fill:#000000;fill-rule:nonzero;font-family:Times &quot;, &quot; Nimbus Roman No9 L"
   id="text156"
   x="78.68"
   y="475.79999"
   inkscape:export-filename="/home/cananian/Harpoon/Design/Figures/phd-spec-full.png"
   inkscape:export-xdpi="178.41"
   inkscape:export-ydpi="178.41">1</text>
<text
   style="font-size:17.13599968px;font-style:normal;font-weight:normal;fill:#000000;fill-rule:nonzero;font-family:Times &quot;, &quot; Nimbus Roman No9 L"
   id="text158"
   x="77.68"
   y="424.89999"
   inkscape:export-filename="/home/cananian/Harpoon/Design/Figures/phd-spec-full.png"
   inkscape:export-xdpi="178.41"
   inkscape:export-ydpi="178.41">2</text>
<text
   style="font-size:17.13599968px;font-style:normal;font-weight:normal;fill:#000000;fill-rule:nonzero;font-family:Times &quot;, &quot; Nimbus Roman No9 L"
   id="text160"
   x="78.68"
   y="374.5"
   inkscape:export-filename="/home/cananian/Harpoon/Design/Figures/phd-spec-full.png"
   inkscape:export-xdpi="178.41"
   inkscape:export-ydpi="178.41">3</text>
<text
   style="font-size:17.13599968px;font-style:normal;font-weight:normal;fill:#000000;fill-rule:nonzero;font-family:Times &quot;, &quot; Nimbus Roman No9 L"
   id="text162"
   x="77.68"
   y="324.10001"
   inkscape:export-filename="/home/cananian/Harpoon/Design/Figures/phd-spec-full.png"
   inkscape:export-xdpi="178.41"
   inkscape:export-ydpi="178.41">4</text>
<text
   style="font-size:17.13599968px;font-style:normal;font-weight:normal;fill:#000000;fill-rule:nonzero;font-family:Times &quot;, &quot; Nimbus Roman No9 L"
   id="text164"
   x="77.68"
   y="274.20001"
   inkscape:export-filename="/home/cananian/Harpoon/Design/Figures/phd-spec-full.png"
   inkscape:export-xdpi="178.41"
   inkscape:export-ydpi="178.41">5</text>
<text
   style="font-size:17.13599968px;font-style:normal;font-weight:normal;fill:#000000;fill-rule:nonzero;font-family:Times &quot;, &quot; Nimbus Roman No9 L"
   id="text166"
   x="77.68"
   y="223.8"
   inkscape:export-filename="/home/cananian/Harpoon/Design/Figures/phd-spec-full.png"
   inkscape:export-xdpi="178.41"
   inkscape:export-ydpi="178.41">6</text>
<text
   style="font-size:17.13599968px;font-style:normal;font-weight:normal;fill:#000000;fill-rule:nonzero;font-family:Times &quot;, &quot; Nimbus Roman No9 L"
   id="text168"
   x="77.68"
   y="172.89999"
   inkscape:export-filename="/home/cananian/Harpoon/Design/Figures/phd-spec-full.png"
   inkscape:export-xdpi="178.41"
   inkscape:export-ydpi="178.41">7</text>
<text
   style="font-size:17.13599968px;font-style:normal;font-weight:normal;fill:#000000;fill-rule:nonzero;font-family:Times &quot;, &quot; Nimbus Roman No9 L"
   id="text170"
   x="77.68"
   y="122.5"
   inkscape:export-filename="/home/cananian/Harpoon/Design/Figures/phd-spec-full.png"
   inkscape:export-xdpi="178.41"
   inkscape:export-ydpi="178.41">8</text>
<text
   style="font-size:17.13599968px;font-style:normal;font-weight:normal;fill:#993333;fill-opacity:1;fill-rule:nonzero;font-family:Times &quot;, &quot; Nimbus Roman No9 L"
   transform="matrix(0,-1,1,0,0,0)"
   id="text172"
   x="-391.5"
   y="71.559998"
   inkscape:export-filename="/home/cananian/Harpoon/Design/Figures/phd-spec-full.png"
   inkscape:export-xdpi="178.41"
   inkscape:export-ydpi="178.41">Relative Execution Time</text>
<g
   id="g174"
   style="fill:none;stroke:#000000;stroke-width:0.91799998;stroke-linecap:butt;stroke-linejoin:miter;stroke-dasharray:none"
   transform="matrix(1,0,0,-1,0,612)"
   inkscape:export-filename="/home/cananian/Harpoon/Design/Figures/phd-spec-full.png"
   inkscape:export-xdpi="178.41"
   inkscape:export-ydpi="178.41">
   <path
   id="path176"
   d="M 91.8,91.8 L 91.8,520.2 L 703.8,520.2 L 703.8,91.8 L 91.8,91.8 z " />
  </g><g
   id="g178"
   style="fill:#ffffff;fill-rule:nonzero"
   transform="matrix(1,0,0,-1,0,612)"
   inkscape:export-filename="/home/cananian/Harpoon/Design/Figures/phd-spec-full.png"
   inkscape:export-xdpi="178.41"
   inkscape:export-ydpi="178.41">
   <path
   id="path180"
   d="M 397.8,489.6 L 397.8,430.38 L 591.29,430.38 L 591.29,489.6 L 397.8,489.6 z " />
  </g><g
   id="g182"
   style="fill:none;stroke:#000000;stroke-width:0.91799998;stroke-linecap:butt;stroke-linejoin:miter;stroke-dasharray:none"
   transform="matrix(1.174401,0,0,-0.9987134,-69.338638,611.40816)"
   inkscape:export-filename="/home/cananian/Harpoon/Design/Figures/phd-spec-full.png"
   inkscape:export-xdpi="178.41"
   inkscape:export-ydpi="178.41">
   <path
   id="path184"
   d="M 397.8,489.6 L 397.8,430.38 L 591.29,430.38 L 591.29,489.6 L 397.8,489.6 z " />
  </g><g
   id="g186"
   style="fill:#000000;fill-rule:nonzero"
   transform="matrix(1,0,0,-1,0,612)"
   inkscape:export-filename="/home/cananian/Harpoon/Design/Figures/phd-spec-full.png"
   inkscape:export-xdpi="178.41"
   inkscape:export-ydpi="178.41">
   <text
   id="text188"
   transform="matrix(2.8e-2,0,0,-2.8e-2,442.17,471.86)"
   style="font-size:612px;font-style:normal;font-weight:normal;font-family:Times &quot;, &quot; Nimbus Roman No9 L">Base</text>

  </g><g
   id="g190"
   style="fill:#000000;fill-rule:nonzero"
   transform="matrix(1,0,0,-1,0,612)"
   inkscape:export-filename="/home/cananian/Harpoon/Design/Figures/phd-spec-full.png"
   inkscape:export-xdpi="178.41"
   inkscape:export-ydpi="178.41">
   <path
   id="path192"
   d="M 408.51,471.24 L 408.51,483.48 L 423.81,483.48 L 423.81,471.24 L 408.51,471.24 z " />
   <text
   id="text194"
   transform="matrix(2.8e-2,0,0,-2.8e-2,442.17,454.74)"
   style="font-size:612px;font-style:normal;font-weight:normal;font-family:Times &quot;, &quot; Nimbus Roman No9 L">w/ createTransaction</text>

  </g><g
   id="g196"
   style="fill:#ff0000;fill-rule:nonzero"
   transform="matrix(1,0,0,-1,0,612)"
   inkscape:export-filename="/home/cananian/Harpoon/Design/Figures/phd-spec-full.png"
   inkscape:export-xdpi="178.41"
   inkscape:export-ydpi="178.41">
   <path
   id="path198"
   d="M 408.51,454.12 L 408.51,466.36 L 423.81,466.36 L 423.81,454.12 L 408.51,454.12 z " />
  </g><g
   id="g200"
   style="fill:#000000;fill-rule:nonzero"
   transform="matrix(1,0,0,-1,0,612)"
   inkscape:export-filename="/home/cananian/Harpoon/Design/Figures/phd-spec-full.png"
   inkscape:export-xdpi="178.41"
   inkscape:export-ydpi="178.41">
   <text
   id="text202"
   transform="matrix(2.8e-2,0,0,-2.8e-2,442.17,436.62)"
   style="font-size:612px;font-style:normal;font-weight:normal;font-family:Times &quot;, &quot; Nimbus Roman No9 L">Transactional</text>

  </g><g
   id="g204"
   style="fill:#0000ff;fill-rule:nonzero"
   transform="matrix(1,0,0,-1,0,612)"
   inkscape:export-filename="/home/cananian/Harpoon/Design/Figures/phd-spec-full.png"
   inkscape:export-xdpi="178.41"
   inkscape:export-ydpi="178.41">
   <path
   id="path206"
   d="M 408.51,436.5 L 408.51,448.74 L 423.81,448.74 L 423.81,436.5 L 408.51,436.5 z " />
  </g>
<g
   inkscape:groupmode="layer"
   id="layer1"
   inkscape:label="Main"
   style="display:inline" /><g
   inkscape:groupmode="layer"
   id="layer2"
   inkscape:label="Hidden"
   style="display:none"><g
     id="g208"
     style="fill:#000000;fill-rule:nonzero"
     transform="matrix(1,0,0,-1,0,612)">
   <text
   id="text210"
   transform="matrix(4.2e-2,0,0,-4.2e-2,283.8,556.92)"
   style="font-size:612px;font-style:normal;font-weight:normal;font-family:Times &quot;, &quot; Nimbus Roman No9 L">Transaction Overhead</text>

   <text
   id="text212"
   transform="matrix(2.8e-2,0,0,-2.8e-2,264.8,536.44)"
   style="font-size:612px;font-style:normal;font-weight:normal;font-family:Times &quot;, &quot; Nimbus Roman No9 L">Transactified SPECjvm98 benchmarks</text>

  </g></g></svg>