<?xml version="1.0" encoding="UTF-8" standalone="no"?>
<!-- generated by Grace-5.1.21 -->
<svg
   xmlns:dc="http://purl.org/dc/elements/1.1/"
   xmlns:cc="http://web.resource.org/cc/"
   xmlns:rdf="http://www.w3.org/1999/02/22-rdf-syntax-ns#"
   xmlns:svg="http://www.w3.org/2000/svg"
   xmlns="http://www.w3.org/2000/svg"
   xmlns:sodipodi="http://sodipodi.sourceforge.net/DTD/sodipodi-0.dtd"
   xmlns:inkscape="http://www.inkscape.org/namespaces/inkscape"
   xml:space="preserve"
   width="990"
   height="765"
   viewBox="0 0 792 612"
   id="svg2"
   sodipodi:version="0.32"
   inkscape:version="0.45"
   sodipodi:docname="phd-counter-2.svg"
   inkscape:output_extension="org.inkscape.output.svg.inkscape"
   sodipodi:docbase="/home/cananian/Harpoon/Design/Figures"
   inkscape:export-filename="/home/cananian/Harpoon/Design/Figures/phd-counter-2.png"
   inkscape:export-xdpi="116.36"
   inkscape:export-ydpi="116.36"
   version="1.0"
   sodipodi:modified="TRUE"><metadata
   id="metadata231"><rdf:RDF><cc:Work
       rdf:about=""><dc:format>image/svg+xml</dc:format><dc:type
         rdf:resource="http://purl.org/dc/dcmitype/StillImage" /><cc:license
         rdf:resource="" /></cc:Work></rdf:RDF></metadata><defs
   id="defs229">
 <desc
   id="desc6" />
  
  
  
  
  
  
  
  
  
  
  
  
  
  
  
  
  
  
  
 
   
   
   
   
   
  
   
   
   
   
   
  
   
   
   
   
   
   
   
   
   
  </defs><sodipodi:namedview
   inkscape:window-height="809"
   inkscape:window-width="907"
   inkscape:pageshadow="2"
   inkscape:pageopacity="0.0"
   guidetolerance="10.0"
   gridtolerance="10.0"
   objecttolerance="10.0"
   borderopacity="1.0"
   bordercolor="#666666"
   pagecolor="#ffffff"
   id="base"
   inkscape:zoom="0.78823529"
   inkscape:cx="495"
   inkscape:cy="382.5"
   inkscape:window-x="526"
   inkscape:window-y="113"
   inkscape:current-layer="layer2" />
 <g
   id="g12"
   style="fill:none;stroke:#dcdcdc;stroke-width:0.91799998;stroke-linecap:butt;stroke-linejoin:miter;stroke-dasharray:none"
   transform="matrix(1,0,0,-1,0,612)"
   inkscape:export-filename="/home/cananian/Harpoon/Design/Figures/phd-counter-2.png"
   inkscape:export-xdpi="116.36"
   inkscape:export-ydpi="116.36">
   <path
   id="path14"
   d="M 91.8,91.8 L 703.8,91.8" />
   <path
   id="path16"
   d="M 91.8,214.2 L 703.8,214.2" />
   <path
   id="path18"
   d="M 91.8,336.6 L 703.8,336.6" />
   <path
   id="path20"
   d="M 91.8,459 L 703.8,459" />
  </g><g
   id="g22"
   style="fill:#ff0000;fill-rule:nonzero"
   transform="matrix(1,0,0,-1,0,612)"
   inkscape:export-filename="/home/cananian/Harpoon/Design/Figures/phd-counter-2.png"
   inkscape:export-xdpi="116.36"
   inkscape:export-ydpi="116.36">
   <path
   id="path24"
   d="M 177.48,91.8 L 177.48,214.2 L 201.96,214.2 L 201.96,91.8 L 177.48,91.8 z " />
   <path
   id="path26"
   d="M 299.88,91.8 L 299.88,231.7032 L 324.36,231.7032 L 324.36,91.8 L 299.88,91.8 z " />
   <path
   id="path28"
   d="M 422.28,91.8 L 422.28,458.8776 L 446.76,458.8776 L 446.76,91.8 L 422.28,91.8 z " />
   <path
   id="path30"
   d="M 544.68,91.8 L 544.68,475.6464 L 569.16,475.6464 L 569.16,91.8 L 544.68,91.8 z " />
  </g><g
   id="g32"
   style="fill:#0000ff;fill-rule:nonzero"
   transform="matrix(1,0,0,-1,0,612)"
   inkscape:export-filename="/home/cananian/Harpoon/Design/Figures/phd-counter-2.png"
   inkscape:export-xdpi="116.36"
   inkscape:export-ydpi="116.36">
   <path
   id="path34"
   d="M 201.96,91.8 L 201.96,91.8 L 226.44,91.8 L 226.44,91.8 L 201.96,91.8 z " />
   <path
   id="path36"
   d="M 324.36,91.8 L 324.36,91.8 L 348.84,91.8 L 348.84,91.8 L 324.36,91.8 z " />
   <path
   id="path38"
   d="M 446.76,91.8 L 446.76,441.6192 L 471.24,441.6192 L 471.24,91.8 L 446.76,91.8 z " />
   <path
   id="path40"
   d="M 569.16,91.8 L 569.16,458.1432 L 593.64,458.1432 L 593.64,91.8 L 569.16,91.8 z " />
  </g><g
   id="g42"
   style="fill:#00ff00;fill-rule:nonzero"
   transform="matrix(1,0,0,-1,0,612)"
   inkscape:export-filename="/home/cananian/Harpoon/Design/Figures/phd-counter-2.png"
   inkscape:export-xdpi="116.36"
   inkscape:export-ydpi="116.36">
   <path
   id="path44"
   d="M 226.44,91.8 L 226.44,91.8 L 250.92,91.8 L 250.92,91.8 L 226.44,91.8 z " />
   <path
   id="path46"
   d="M 348.84,91.8 L 348.84,91.8 L 373.32,91.8 L 373.32,91.8 L 348.84,91.8 z " />
   <path
   id="path48"
   d="M 471.24,91.8 L 471.24,91.8 L 495.72,91.8 L 495.72,91.8 L 471.24,91.8 z " />
   <path
   id="path50"
   d="M 593.64,91.8 L 593.64,389.1096 L 618.12,389.1096 L 618.12,91.8 L 593.64,91.8 z " />
  </g><text
   style="font-size:17.13599968px;font-style:normal;font-weight:normal;fill:#000000;fill-rule:nonzero;font-family:Times &quot;, &quot; Nimbus Roman No9 L"
   id="text54"
   x="195.7"
   y="537.32001"
   inkscape:export-filename="/home/cananian/Harpoon/Design/Figures/phd-counter-2.png"
   inkscape:export-xdpi="116.36"
   inkscape:export-ydpi="116.36">None</text>



<text
   style="font-size:17.13599968px;font-style:normal;font-weight:normal;fill:#000000;fill-rule:nonzero;font-family:Times &quot;, &quot; Nimbus Roman No9 L"
   id="text56"
   x="319.10001"
   y="538.32001"
   inkscape:export-filename="/home/cananian/Harpoon/Design/Figures/phd-counter-2.png"
   inkscape:export-xdpi="116.36"
   inkscape:export-ydpi="116.36">Read</text>



<text
   style="font-size:17.13599968px;font-style:normal;font-weight:normal;fill:#000000;fill-rule:nonzero;font-family:Times &quot;, &quot; Nimbus Roman No9 L"
   id="text58"
   x="440"
   y="537.32001"
   inkscape:export-filename="/home/cananian/Harpoon/Design/Figures/phd-counter-2.png"
   inkscape:export-xdpi="116.36"
   inkscape:export-ydpi="116.36">Write</text>



<text
   style="font-size:17.13599968px;font-style:normal;font-weight:normal;fill:#000000;fill-rule:nonzero;font-family:Times &quot;, &quot; Nimbus Roman No9 L"
   id="text60"
   x="527.90002"
   y="538.32001"
   inkscape:export-filename="/home/cananian/Harpoon/Design/Figures/phd-counter-2.png"
   inkscape:export-xdpi="116.36"
   inkscape:export-ydpi="116.36">Read and Write</text>



<text
   style="font-size:17.13599968px;font-style:normal;font-weight:normal;fill:#993333;fill-opacity:1;fill-rule:nonzero;font-family:Times &quot;, &quot; Nimbus Roman No9 L"
   id="text62"
   x="347.79999"
   y="556.44"
   inkscape:export-filename="/home/cananian/Harpoon/Design/Figures/phd-counter-2.png"
   inkscape:export-xdpi="116.36"
   inkscape:export-ydpi="116.36">Checks Added</text>



<g
   id="g64"
   style="fill:none;stroke:#000000;stroke-width:0.91799998;stroke-linecap:butt;stroke-linejoin:miter;stroke-dasharray:none"
   transform="matrix(1,0,0,-1,0,612)"
   inkscape:export-filename="/home/cananian/Harpoon/Design/Figures/phd-counter-2.png"
   inkscape:export-xdpi="116.36"
   inkscape:export-ydpi="116.36">
   <path
   id="path66"
   d="M 91.8,91.8 L 91.8,520.2" />
   <path
   id="path68"
   d="M 703.8,91.8 L 703.8,520.2" />
   <path
   id="path70"
   d="M 91.8,112.2 L 97.92,112.2" />
   <path
   id="path72"
   d="M 703.8,112.2 L 697.68,112.2" />
   <path
   id="path74"
   d="M 91.8,132.6 L 97.92,132.6" />
   <path
   id="path76"
   d="M 703.8,132.6 L 697.68,132.6" />
   <path
   id="path78"
   d="M 91.8,153 L 97.92,153" />
   <path
   id="path80"
   d="M 703.8,153 L 697.68,153" />
   <path
   id="path82"
   d="M 91.8,173.4 L 97.92,173.4" />
   <path
   id="path84"
   d="M 703.8,173.4 L 697.68,173.4" />
   <path
   id="path86"
   d="M 91.8,193.8 L 97.92,193.8" />
   <path
   id="path88"
   d="M 703.8,193.8 L 697.68,193.8" />
   <path
   id="path90"
   d="M 91.8,234.6 L 97.92,234.6" />
   <path
   id="path92"
   d="M 703.8,234.6 L 697.68,234.6" />
   <path
   id="path94"
   d="M 91.8,255 L 97.92,255" />
   <path
   id="path96"
   d="M 703.8,255 L 697.68,255" />
   <path
   id="path98"
   d="M 91.8,275.4 L 97.92,275.4" />
   <path
   id="path100"
   d="M 703.8,275.4 L 697.68,275.4" />
   <path
   id="path102"
   d="M 91.8,295.8 L 97.92,295.8" />
   <path
   id="path104"
   d="M 703.8,295.8 L 697.68,295.8" />
   <path
   id="path106"
   d="M 91.8,316.2 L 97.92,316.2" />
   <path
   id="path108"
   d="M 703.8,316.2 L 697.68,316.2" />
   <path
   id="path110"
   d="M 91.8,357 L 97.92,357" />
   <path
   id="path112"
   d="M 703.8,357 L 697.68,357" />
   <path
   id="path114"
   d="M 91.8,377.4 L 97.92,377.4" />
   <path
   id="path116"
   d="M 703.8,377.4 L 697.68,377.4" />
   <path
   id="path118"
   d="M 91.8,397.8 L 97.92,397.8" />
   <path
   id="path120"
   d="M 703.8,397.8 L 697.68,397.8" />
   <path
   id="path122"
   d="M 91.8,418.2 L 97.92,418.2" />
   <path
   id="path124"
   d="M 703.8,418.2 L 697.68,418.2" />
   <path
   id="path126"
   d="M 91.8,438.6 L 97.92,438.6" />
   <path
   id="path128"
   d="M 703.8,438.6 L 697.68,438.6" />
   <path
   id="path130"
   d="M 91.8,479.4 L 97.92,479.4" />
   <path
   id="path132"
   d="M 703.8,479.4 L 697.68,479.4" />
   <path
   id="path134"
   d="M 91.8,499.8 L 97.92,499.8" />
   <path
   id="path136"
   d="M 703.8,499.8 L 697.68,499.8" />
   <path
   id="path138"
   d="M 91.8,520.2 L 97.92,520.2" />
   <path
   id="path140"
   d="M 703.8,520.2 L 697.68,520.2" />
  </g><g
   id="g142"
   style="fill:none;stroke:#dcdcdc;stroke-width:0.91799998;stroke-linecap:butt;stroke-linejoin:miter;stroke-dasharray:none"
   transform="matrix(1,0,0,-1,0,612)"
   inkscape:export-filename="/home/cananian/Harpoon/Design/Figures/phd-counter-2.png"
   inkscape:export-xdpi="116.36"
   inkscape:export-ydpi="116.36">
   <path
   id="path144"
   d="M 91.8,91.8 L 104.04,91.8" />
   <path
   id="path146"
   d="M 703.8,91.8 L 691.56,91.8" />
   <path
   id="path148"
   d="M 91.8,214.2 L 104.04,214.2" />
   <path
   id="path150"
   d="M 703.8,214.2 L 691.56,214.2" />
   <path
   id="path152"
   d="M 91.8,336.6 L 104.04,336.6" />
   <path
   id="path154"
   d="M 703.8,336.6 L 691.56,336.6" />
   <path
   id="path156"
   d="M 91.8,459 L 104.04,459" />
   <path
   id="path158"
   d="M 703.8,459 L 691.56,459" />
  </g><text
   style="font-size:17.13599968px;font-style:normal;font-weight:normal;fill:#000000;fill-rule:nonzero;font-family:Times &quot;, &quot; Nimbus Roman No9 L"
   id="text162"
   x="77.68"
   y="525.70001"
   inkscape:export-filename="/home/cananian/Harpoon/Design/Figures/phd-counter-2.png"
   inkscape:export-xdpi="116.36"
   inkscape:export-ydpi="116.36">0</text>



<text
   style="font-size:17.13599968px;font-style:normal;font-weight:normal;fill:#000000;fill-rule:nonzero;font-family:Times &quot;, &quot; Nimbus Roman No9 L"
   id="text164"
   x="78.68"
   y="403.79999"
   inkscape:export-filename="/home/cananian/Harpoon/Design/Figures/phd-counter-2.png"
   inkscape:export-xdpi="116.36"
   inkscape:export-ydpi="116.36">1</text>



<text
   style="font-size:17.13599968px;font-style:normal;font-weight:normal;fill:#000000;fill-rule:nonzero;font-family:Times &quot;, &quot; Nimbus Roman No9 L"
   id="text166"
   x="77.68"
   y="280.89999"
   inkscape:export-filename="/home/cananian/Harpoon/Design/Figures/phd-counter-2.png"
   inkscape:export-xdpi="116.36"
   inkscape:export-ydpi="116.36">2</text>



<text
   style="font-size:17.13599968px;font-style:normal;font-weight:normal;fill:#000000;fill-rule:nonzero;font-family:Times &quot;, &quot; Nimbus Roman No9 L"
   id="text168"
   x="78.68"
   y="158.5"
   inkscape:export-filename="/home/cananian/Harpoon/Design/Figures/phd-counter-2.png"
   inkscape:export-xdpi="116.36"
   inkscape:export-ydpi="116.36">3</text>



<text
   style="font-size:17.13599968px;font-style:normal;font-weight:normal;fill:#993333;fill-opacity:1;fill-rule:nonzero;font-family:Times &quot;, &quot; Nimbus Roman No9 L"
   transform="matrix(0,-1,1,0,0,0)"
   id="text170"
   x="-391.5"
   y="71.559998"
   inkscape:export-filename="/home/cananian/Harpoon/Design/Figures/phd-counter-2.png"
   inkscape:export-xdpi="116.36"
   inkscape:export-ydpi="116.36">Relative Execution Time</text>



<g
   id="g172"
   style="fill:none;stroke:#000000;stroke-width:0.91799998;stroke-linecap:butt;stroke-linejoin:miter;stroke-dasharray:none"
   transform="matrix(1,0,0,-1,0,612)"
   inkscape:export-filename="/home/cananian/Harpoon/Design/Figures/phd-counter-2.png"
   inkscape:export-xdpi="116.36"
   inkscape:export-ydpi="116.36">
   <path
   id="path174"
   d="M 91.8,91.8 L 91.8,520.2 L 703.8,520.2 L 703.8,91.8 L 91.8,91.8 z " />
  </g><g
   id="g176"
   style="fill:#ffffff;fill-rule:nonzero"
   transform="matrix(1,0,0,-1,0,612)"
   inkscape:export-filename="/home/cananian/Harpoon/Design/Figures/phd-counter-2.png"
   inkscape:export-xdpi="116.36"
   inkscape:export-ydpi="116.36">
   <path
   id="path178"
   d="M 122.4,489.6 L 122.4,417.12 L 301.48,417.12 L 301.48,489.6 L 122.4,489.6 z " />
  </g><g
   id="g180"
   style="fill:#ffffff;fill-opacity:1;stroke:#bc8f8f;stroke-width:0.91799998;stroke-linecap:butt;stroke-linejoin:miter;stroke-dasharray:none"
   transform="matrix(1.1525122,0,0,-0.9990747,-18.63396,611.58052)"
   inkscape:export-filename="/home/cananian/Harpoon/Design/Figures/phd-counter-2.png"
   inkscape:export-xdpi="116.36"
   inkscape:export-ydpi="116.36">
   <path
   id="path182"
   d="M 122.4,489.6 L 122.4,417.12 L 301.48,417.12 L 301.48,489.6 L 122.4,489.6 z "
   style="fill:#ffffff;fill-opacity:1" />
  </g><g
   id="g184"
   style="fill:#000000;fill-rule:nonzero"
   transform="matrix(1,0,0,-1,0,612)"
   inkscape:export-filename="/home/cananian/Harpoon/Design/Figures/phd-counter-2.png"
   inkscape:export-xdpi="116.36"
   inkscape:export-ydpi="116.36">
   <text
   id="text186"
   transform="matrix(2.8e-2,0,0,-2.8e-2,171.36,471.48)"
   style="font-size:612px;font-style:normal;font-weight:normal;font-family:Times &quot;, &quot; Nimbus Roman No9 L">C Implementation</text>




  </g><g
   id="g188"
   style="fill:#ff0000;fill-rule:nonzero"
   transform="matrix(1,0,0,-1,0,612)"
   inkscape:export-filename="/home/cananian/Harpoon/Design/Figures/phd-counter-2.png"
   inkscape:export-xdpi="116.36"
   inkscape:export-ydpi="116.36">
   <path
   id="path190"
   d="M 128.52,469.36 L 128.52,481.6 L 153,481.6 L 153,469.36 L 128.52,469.36 z " />
  </g><g
   id="g192"
   style="fill:#000000;fill-rule:nonzero"
   transform="matrix(1,0,0,-1,0,612)"
   inkscape:export-filename="/home/cananian/Harpoon/Design/Figures/phd-counter-2.png"
   inkscape:export-xdpi="116.36"
   inkscape:export-ydpi="116.36">
   <text
   id="text194"
   transform="matrix(2.8e-2,0,0,-2.8e-2,171.36,449.36)"
   style="font-size:612px;font-style:normal;font-weight:normal;font-family:Times &quot;, &quot; Nimbus Roman No9 L">Optimized Write</text>




  </g><g
   id="g196"
   style="fill:#0000ff;fill-rule:nonzero"
   transform="matrix(1,0,0,-1,0,612)"
   inkscape:export-filename="/home/cananian/Harpoon/Design/Figures/phd-counter-2.png"
   inkscape:export-xdpi="116.36"
   inkscape:export-ydpi="116.36">
   <path
   id="path198"
   d="M 128.52,447.24 L 128.52,459.48 L 153,459.48 L 153,447.24 L 128.52,447.24 z " />
  </g><g
   id="g200"
   style="fill:#000000;fill-rule:nonzero"
   transform="matrix(1,0,0,-1,0,612)"
   inkscape:export-filename="/home/cananian/Harpoon/Design/Figures/phd-counter-2.png"
   inkscape:export-xdpi="116.36"
   inkscape:export-ydpi="116.36">
   <text
   id="text202"
   transform="matrix(2.8e-2,0,0,-2.8e-2,171.36,427.24)"
   style="font-size:612px;font-style:normal;font-weight:normal;font-family:Times &quot;, &quot; Nimbus Roman No9 L">Fully Optimized</text>




  </g><g
   id="g204"
   style="fill:#00ff00;fill-rule:nonzero"
   transform="matrix(1,0,0,-1,0,612)"
   inkscape:export-filename="/home/cananian/Harpoon/Design/Figures/phd-counter-2.png"
   inkscape:export-xdpi="116.36"
   inkscape:export-ydpi="116.36">
   <path
   id="path206"
   d="M 128.52,425.12 L 128.52,437.36 L 153,437.36 L 153,425.12 L 128.52,425.12 z " />
  </g>





<text
   style="font-size:17.13599968px;font-style:normal;font-weight:normal;fill:#000000;fill-rule:nonzero;font-family:Times &quot;, &quot; Nimbus Roman No9 L"
   id="text214"
   x="175.25"
   y="395.25"
   inkscape:export-filename="/home/cananian/Harpoon/Design/Figures/phd-counter-2.png"
   inkscape:export-xdpi="116.36"
   inkscape:export-ydpi="116.36">1.00</text>



<text
   style="font-size:17.13599968px;font-style:normal;font-weight:normal;fill:#000000;fill-rule:nonzero;font-family:Times &quot;, &quot; Nimbus Roman No9 L"
   id="text216"
   x="297.5"
   y="378"
   inkscape:export-filename="/home/cananian/Harpoon/Design/Figures/phd-counter-2.png"
   inkscape:export-xdpi="116.36"
   inkscape:export-ydpi="116.36">1.14</text>



<text
   style="font-size:17.13599968px;font-style:normal;font-weight:normal;fill:#000000;fill-rule:nonzero;font-family:Times &quot;, &quot; Nimbus Roman No9 L"
   id="text218"
   x="449"
   y="168"
   inkscape:export-filename="/home/cananian/Harpoon/Design/Figures/phd-counter-2.png"
   inkscape:export-xdpi="116.36"
   inkscape:export-ydpi="116.36">2.86</text>



<text
   style="font-size:17.13599968px;font-style:normal;font-weight:normal;fill:#000000;fill-rule:nonzero;font-family:Times &quot;, &quot; Nimbus Roman No9 L"
   id="text220"
   x="420.5"
   y="150.75"
   inkscape:export-filename="/home/cananian/Harpoon/Design/Figures/phd-counter-2.png"
   inkscape:export-xdpi="116.36"
   inkscape:export-ydpi="116.36">3.00</text>



<text
   style="font-size:17.13599968px;font-style:normal;font-weight:normal;fill:#000000;fill-rule:nonzero;font-family:Times &quot;, &quot; Nimbus Roman No9 L"
   id="text222"
   x="542"
   y="134.25"
   inkscape:export-filename="/home/cananian/Harpoon/Design/Figures/phd-counter-2.png"
   inkscape:export-xdpi="116.36"
   inkscape:export-ydpi="116.36">3.14</text>



<text
   style="font-size:17.13599968px;font-style:normal;font-weight:normal;fill:#000000;fill-rule:nonzero;font-family:Times &quot;, &quot; Nimbus Roman No9 L"
   id="text224"
   x="571.25"
   y="151.5"
   inkscape:export-filename="/home/cananian/Harpoon/Design/Figures/phd-counter-2.png"
   inkscape:export-xdpi="116.36"
   inkscape:export-ydpi="116.36">2.99</text>



<text
   style="font-size:17.13599968px;font-style:normal;font-weight:normal;fill:#000000;fill-rule:nonzero;font-family:Times &quot;, &quot; Nimbus Roman No9 L"
   id="text226"
   x="596.5"
   y="220.5"
   inkscape:export-filename="/home/cananian/Harpoon/Design/Figures/phd-counter-2.png"
   inkscape:export-xdpi="116.36"
   inkscape:export-ydpi="116.36">2.43</text>




<g
   inkscape:groupmode="layer"
   id="layer2"
   inkscape:label="Main"
   style="display:inline" /><g
   inkscape:groupmode="layer"
   id="layer1"
   inkscape:label="Hidden"
   style="display:none"><text
     style="font-size:32px;font-style:italic;font-variant:normal;font-weight:bold;font-stretch:normal;text-align:center;line-height:125%;writing-mode:lr-tb;text-anchor:middle;fill:#993333;fill-opacity:1;fill-rule:nonzero;font-family:Arial"
     id="text210"
     x="421.15262"
     y="55.080002"
     sodipodi:linespacing="125%">Read/Write Check Overheads</text>
<text
     style="font-size:17.13599968px;font-style:normal;font-weight:normal;fill:#cc6600;fill-opacity:1;fill-rule:nonzero;font-family:Times &quot;, &quot; Nimbus Roman No9 L"
     id="text212"
     x="308.79999"
     y="79.559998">Counter Microbenchmark</text>
</g></svg>