<?xml version="1.0" encoding="UTF-8" standalone="no"?>
<!-- generated by Grace-5.1.21 -->
<svg
   xmlns:dc="http://purl.org/dc/elements/1.1/"
   xmlns:cc="http://web.resource.org/cc/"
   xmlns:rdf="http://www.w3.org/1999/02/22-rdf-syntax-ns#"
   xmlns:svg="http://www.w3.org/2000/svg"
   xmlns="http://www.w3.org/2000/svg"
   xmlns:sodipodi="http://sodipodi.sourceforge.net/DTD/sodipodi-0.dtd"
   xmlns:inkscape="http://www.inkscape.org/namespaces/inkscape"
   xml:space="preserve"
   width="11.0000in"
   height="8.5000in"
   viewBox="0.0000 0.0000 792.0000 612.0000"
   id="svg2550"
   sodipodi:version="0.32"
   inkscape:version="0.45"
   sodipodi:docname="phd-spec-nt-2.svg"
   sodipodi:docbase="/home/cananian/Harpoon/Design/Figures"
   inkscape:output_extension="org.inkscape.output.svg.inkscape"
   sodipodi:modified="TRUE"><metadata
   id="metadata2799"><rdf:RDF><cc:Work
       rdf:about=""><dc:format>image/svg+xml</dc:format><dc:type
         rdf:resource="http://purl.org/dc/dcmitype/StillImage" /></cc:Work></rdf:RDF></metadata><defs
   id="defs2797">
  
  
  
  
  
  
  
  
  
  
  
  
  
  
  
  
  
  
  
 </defs><sodipodi:namedview
   inkscape:window-height="588"
   inkscape:window-width="790"
   inkscape:pageshadow="2"
   inkscape:pageopacity="0.0"
   guidetolerance="10.0"
   gridtolerance="10.0"
   objecttolerance="10.0"
   borderopacity="1.0"
   bordercolor="#666666"
   pagecolor="#ffffff"
   id="base"
   inkscape:zoom="0.49673203"
   inkscape:cx="495"
   inkscape:cy="382.5"
   inkscape:window-x="540"
   inkscape:window-y="326"
   inkscape:current-layer="layer2" />
 <g
   id="g2558"
   style="fill:#000000;fill-rule:nonzero"
   transform="matrix(1,0,0,-1,0,612)"
   inkscape:export-filename="/home/cananian/Harpoon/Design/Figures/phd-spec-nt-2.png"
   inkscape:export-xdpi="197.98"
   inkscape:export-ydpi="197.98">
   <path
   id="path2560"
   d="M 169.473,92.259 L 169.473,198.9 L 193.035,198.9 L 193.035,92.259 L 169.473,92.259 z " />
   <path
   id="path2562"
   d="M 271.473,92.259 L 271.473,198.9 L 295.035,198.9 L 295.035,92.259 L 271.473,92.259 z " />
   <path
   id="path2564"
   d="M 373.473,92.259 L 373.473,198.9 L 397.035,198.9 L 397.035,92.259 L 373.473,92.259 z " />
   <path
   id="path2566"
   d="M 475.473,92.259 L 475.473,198.9 L 499.035,198.9 L 499.035,92.259 L 475.473,92.259 z " />
   <path
   id="path2568"
   d="M 577.473,92.259 L 577.473,198.9 L 601.035,198.9 L 601.035,92.259 L 577.473,92.259 z " />
  </g><g
   id="g2570"
   style="fill:none;stroke:#000000;stroke-width:0.91799998;stroke-linecap:butt;stroke-linejoin:miter;stroke-dasharray:none"
   transform="matrix(1,0,0,-1,0,612)"
   inkscape:export-filename="/home/cananian/Harpoon/Design/Figures/phd-spec-nt-2.png"
   inkscape:export-xdpi="197.98"
   inkscape:export-ydpi="197.98">
   <path
   id="path2572"
   d="M 169.473,92.259 L 169.473,198.9 L 193.035,198.9 L 193.035,92.259 L 169.473,92.259 z " />
   <path
   id="path2574"
   d="M 271.473,92.259 L 271.473,198.9 L 295.035,198.9 L 295.035,92.259 L 271.473,92.259 z " />
   <path
   id="path2576"
   d="M 373.473,92.259 L 373.473,198.9 L 397.035,198.9 L 397.035,92.259 L 373.473,92.259 z " />
   <path
   id="path2578"
   d="M 475.473,92.259 L 475.473,198.9 L 499.035,198.9 L 499.035,92.259 L 475.473,92.259 z " />
   <path
   id="path2580"
   d="M 577.473,92.259 L 577.473,198.9 L 601.035,198.9 L 601.035,92.259 L 577.473,92.259 z " />
  </g><g
   id="g2582"
   style="fill:#ff0000;fill-rule:nonzero"
   transform="matrix(1,0,0,-1,0,612)"
   inkscape:export-filename="/home/cananian/Harpoon/Design/Figures/phd-spec-nt-2.png"
   inkscape:export-xdpi="197.98"
   inkscape:export-ydpi="197.98">
   <path
   id="path2584"
   d="M 194.565,92.259 L 194.565,248.166 L 218.127,248.166 L 218.127,92.259 L 194.565,92.259 z " />
   <path
   id="path2586"
   d="M 296.565,92.259 L 296.565,207.468 L 320.127,207.468 L 320.127,92.259 L 296.565,92.259 z " />
   <path
   id="path2588"
   d="M 398.565,92.259 L 398.565,267.444 L 422.127,267.444 L 422.127,92.259 L 398.565,92.259 z " />
   <path
   id="path2590"
   d="M 500.565,92.259 L 500.565,465.579 L 524.127,465.579 L 524.127,92.259 L 500.565,92.259 z " />
   <path
   id="path2592"
   d="M 602.565,92.259 L 602.565,255.663 L 626.127,255.663 L 626.127,92.259 L 602.565,92.259 z " />
  </g><g
   id="g2594"
   style="fill:none;stroke:#000000;stroke-width:0.91799998;stroke-linecap:butt;stroke-linejoin:miter;stroke-dasharray:none"
   transform="matrix(1,0,0,-1,0,612)"
   inkscape:export-filename="/home/cananian/Harpoon/Design/Figures/phd-spec-nt-2.png"
   inkscape:export-xdpi="197.98"
   inkscape:export-ydpi="197.98">
   <path
   id="path2596"
   d="M 194.565,92.259 L 194.565,248.166 L 218.127,248.166 L 218.127,92.259 L 194.565,92.259 z " />
   <path
   id="path2598"
   d="M 296.565,92.259 L 296.565,207.468 L 320.127,207.468 L 320.127,92.259 L 296.565,92.259 z " />
   <path
   id="path2600"
   d="M 398.565,92.259 L 398.565,267.444 L 422.127,267.444 L 422.127,92.259 L 398.565,92.259 z " />
   <path
   id="path2602"
   d="M 500.565,92.259 L 500.565,465.579 L 524.127,465.579 L 524.127,92.259 L 500.565,92.259 z " />
   <path
   id="path2604"
   d="M 602.565,92.259 L 602.565,255.663 L 626.127,255.663 L 626.127,92.259 L 602.565,92.259 z " />
  </g><g
   id="g2606"
   style="fill:#000000;fill-rule:nonzero"
   transform="matrix(1,0,0,-1,0,607.2)"
   inkscape:export-filename="/home/cananian/Harpoon/Design/Figures/phd-spec-nt-2.png"
   inkscape:export-xdpi="197.98"
   inkscape:export-ydpi="197.98">
   <text
   id="text2608"
   transform="matrix(2.8e-2,0,0,-2.8e-2,191.846,248.166)"
   style="font-size:612px;font-style:normal;font-weight:normal;font-family:Times &quot;, &quot; Nimbus Roman No9 L">1.46</text>

   <text
   id="text2610"
   transform="matrix(2.8e-2,0,0,-2.8e-2,293.846,207.468)"
   style="font-size:612px;font-style:normal;font-weight:normal;font-family:Times &quot;, &quot; Nimbus Roman No9 L">1.08</text>

   <text
   id="text2612"
   transform="matrix(2.8e-2,0,0,-2.8e-2,395.846,267.444)"
   style="font-size:612px;font-style:normal;font-weight:normal;font-family:Times &quot;, &quot; Nimbus Roman No9 L">1.64</text>

   <text
   id="text2614"
   transform="matrix(2.8e-2,0,0,-2.8e-2,497.846,465.579)"
   style="font-size:612px;font-style:normal;font-weight:normal;font-family:Times &quot;, &quot; Nimbus Roman No9 L">3.49</text>

   <text
   id="text2616"
   transform="matrix(2.8e-2,0,0,-2.8e-2,600.346,255.663)"
   style="font-size:612px;font-style:normal;font-weight:normal;font-family:Times &quot;, &quot; Nimbus Roman No9 L">1.53</text>

  </g><g
   id="g2618"
   style="fill:none;stroke:#000000;stroke-width:0.91799998;stroke-linecap:butt;stroke-linejoin:miter;stroke-dasharray:none"
   transform="matrix(1,0,0,-1,0,612)"
   inkscape:export-filename="/home/cananian/Harpoon/Design/Figures/phd-spec-nt-2.png"
   inkscape:export-xdpi="197.98"
   inkscape:export-ydpi="197.98">
   <path
   id="path2620"
   d="M 91.8,91.8 L 703.8,91.8" />
   <path
   id="path2622"
   d="M 91.8,520.2 L 703.8,520.2" />
  </g><g
   id="g2624"
   style="fill:#000000;fill-rule:nonzero"
   transform="matrix(1,0,0,-1,0,612)"
   inkscape:export-filename="/home/cananian/Harpoon/Design/Figures/phd-spec-nt-2.png"
   inkscape:export-xdpi="197.98"
   inkscape:export-ydpi="197.98">
   <text
   id="text2626"
   transform="matrix(2.8e-2,0,0,-2.8e-2,181.8,74.68)"
   style="font-size:612px;font-style:normal;font-weight:normal;font-family:Times &quot;, &quot; Nimbus Roman No9 L">jess</text>

   <text
   id="text2628"
   transform="matrix(2.8e-2,0,0,-2.8e-2,287.3,73.68)"
   style="font-size:612px;font-style:normal;font-weight:normal;font-family:Times &quot;, &quot; Nimbus Roman No9 L">db</text>

   <text
   id="text2630"
   transform="matrix(2.8e-2,0,0,-2.8e-2,380.3,74.68)"
   style="font-size:612px;font-style:normal;font-weight:normal;font-family:Times &quot;, &quot; Nimbus Roman No9 L">javac</text>

   <text
   id="text2632"
   transform="matrix(2.8e-2,0,0,-2.8e-2,461.8,73.68)"
   style="font-size:612px;font-style:normal;font-weight:normal;font-family:Times &quot;, &quot; Nimbus Roman No9 L">mpegaudio</text>

   <text
   id="text2634"
   transform="matrix(2.8e-2,0,0,-2.8e-2,587.8,73.68)"
   style="font-size:612px;font-style:normal;font-weight:normal;font-family:Times &quot;, &quot; Nimbus Roman No9 L">jack</text>

  </g><g
   id="g2636"
   style="fill:none;stroke:#000000;stroke-width:0.91799998;stroke-linecap:butt;stroke-linejoin:miter;stroke-dasharray:none"
   transform="matrix(1,0,0,-1,0,612)"
   inkscape:export-filename="/home/cananian/Harpoon/Design/Figures/phd-spec-nt-2.png"
   inkscape:export-xdpi="197.98"
   inkscape:export-ydpi="197.98">
   <path
   id="path2638"
   d="M 91.8,91.8 L 91.8,520.2" />
   <path
   id="path2640"
   d="M 703.8,91.8 L 703.8,520.2" />
   <path
   id="path2642"
   d="M 91.8,109.65 L 97.92,109.65" />
   <path
   id="path2644"
   d="M 703.8,109.65 L 697.68,109.65" />
   <path
   id="path2646"
   d="M 91.8,127.5 L 97.92,127.5" />
   <path
   id="path2648"
   d="M 703.8,127.5 L 697.68,127.5" />
   <path
   id="path2650"
   d="M 91.8,145.35 L 97.92,145.35" />
   <path
   id="path2652"
   d="M 703.8,145.35 L 697.68,145.35" />
   <path
   id="path2654"
   d="M 91.8,163.2 L 97.92,163.2" />
   <path
   id="path2656"
   d="M 703.8,163.2 L 697.68,163.2" />
   <path
   id="path2658"
   d="M 91.8,181.05 L 97.92,181.05" />
   <path
   id="path2660"
   d="M 703.8,181.05 L 697.68,181.05" />
   <path
   id="path2662"
   d="M 91.8,216.75 L 97.92,216.75" />
   <path
   id="path2664"
   d="M 703.8,216.75 L 697.68,216.75" />
   <path
   id="path2666"
   d="M 91.8,234.6 L 97.92,234.6" />
   <path
   id="path2668"
   d="M 703.8,234.6 L 697.68,234.6" />
   <path
   id="path2670"
   d="M 91.8,252.45 L 97.92,252.45" />
   <path
   id="path2672"
   d="M 703.8,252.45 L 697.68,252.45" />
   <path
   id="path2674"
   d="M 91.8,270.3 L 97.92,270.3" />
   <path
   id="path2676"
   d="M 703.8,270.3 L 697.68,270.3" />
   <path
   id="path2678"
   d="M 91.8,288.15 L 97.92,288.15" />
   <path
   id="path2680"
   d="M 703.8,288.15 L 697.68,288.15" />
   <path
   id="path2682"
   d="M 91.8,323.85 L 97.92,323.85" />
   <path
   id="path2684"
   d="M 703.8,323.85 L 697.68,323.85" />
   <path
   id="path2686"
   d="M 91.8,341.7 L 97.92,341.7" />
   <path
   id="path2688"
   d="M 703.8,341.7 L 697.68,341.7" />
   <path
   id="path2690"
   d="M 91.8,359.55 L 97.92,359.55" />
   <path
   id="path2692"
   d="M 703.8,359.55 L 697.68,359.55" />
   <path
   id="path2694"
   d="M 91.8,377.4 L 97.92,377.4" />
   <path
   id="path2696"
   d="M 703.8,377.4 L 697.68,377.4" />
   <path
   id="path2698"
   d="M 91.8,395.25 L 97.92,395.25" />
   <path
   id="path2700"
   d="M 703.8,395.25 L 697.68,395.25" />
   <path
   id="path2702"
   d="M 91.8,430.95 L 97.92,430.95" />
   <path
   id="path2704"
   d="M 703.8,430.95 L 697.68,430.95" />
   <path
   id="path2706"
   d="M 91.8,448.8 L 97.92,448.8" />
   <path
   id="path2708"
   d="M 703.8,448.8 L 697.68,448.8" />
   <path
   id="path2710"
   d="M 91.8,466.65 L 97.92,466.65" />
   <path
   id="path2712"
   d="M 703.8,466.65 L 697.68,466.65" />
   <path
   id="path2714"
   d="M 91.8,484.5 L 97.92,484.5" />
   <path
   id="path2716"
   d="M 703.8,484.5 L 697.68,484.5" />
   <path
   id="path2718"
   d="M 91.8,502.35 L 97.92,502.35" />
   <path
   id="path2720"
   d="M 703.8,502.35 L 697.68,502.35" />
   <path
   id="path2722"
   d="M 91.8,91.8 L 104.04,91.8" />
   <path
   id="path2724"
   d="M 703.8,91.8 L 691.56,91.8" />
   <path
   id="path2726"
   d="M 91.8,198.9 L 104.04,198.9" />
   <path
   id="path2728"
   d="M 703.8,198.9 L 691.56,198.9" />
   <path
   id="path2730"
   d="M 91.8,306 L 104.04,306" />
   <path
   id="path2732"
   d="M 703.8,306 L 691.56,306" />
   <path
   id="path2734"
   d="M 91.8,413.1 L 104.04,413.1" />
   <path
   id="path2736"
   d="M 703.8,413.1 L 691.56,413.1" />
   <path
   id="path2738"
   d="M 91.8,520.2 L 104.04,520.2" />
   <path
   id="path2740"
   d="M 703.8,520.2 L 691.56,520.2" />
  </g><g
   id="g2742"
   style="fill:#000000;fill-rule:nonzero"
   transform="matrix(1,0,0,-1,0,612)"
   inkscape:export-filename="/home/cananian/Harpoon/Design/Figures/phd-spec-nt-2.png"
   inkscape:export-xdpi="197.98"
   inkscape:export-ydpi="197.98">
   <text
   id="text2744"
   transform="matrix(2.8e-2,0,0,-2.8e-2,77.68,86.3)"
   style="font-size:612px;font-style:normal;font-weight:normal;font-family:Times &quot;, &quot; Nimbus Roman No9 L">0</text>

   <text
   id="text2746"
   transform="matrix(2.8e-2,0,0,-2.8e-2,78.68,192.9)"
   style="font-size:612px;font-style:normal;font-weight:normal;font-family:Times &quot;, &quot; Nimbus Roman No9 L">1</text>

   <text
   id="text2748"
   transform="matrix(2.8e-2,0,0,-2.8e-2,77.68,300.5)"
   style="font-size:612px;font-style:normal;font-weight:normal;font-family:Times &quot;, &quot; Nimbus Roman No9 L">2</text>

   <text
   id="text2750"
   transform="matrix(2.8e-2,0,0,-2.8e-2,78.68,407.6)"
   style="font-size:612px;font-style:normal;font-weight:normal;font-family:Times &quot;, &quot; Nimbus Roman No9 L">3</text>

   <text
   id="text2752"
   transform="matrix(2.8e-2,0,0,-2.8e-2,77.68,514.7)"
   style="font-size:612px;font-style:normal;font-weight:normal;font-family:Times &quot;, &quot; Nimbus Roman No9 L">4</text>

   <text
   id="text2754"
   transform="matrix(0,2.8e-2,2.8e-2,0,71.56,220.5)"
   style="font-size:612px;font-style:normal;font-weight:normal;font-family:Times &quot;, &quot; Nimbus Roman No9 L">Relative Execution Time</text>

  </g><g
   id="g2756"
   style="fill:none;stroke:#000000;stroke-width:0.91799998;stroke-linecap:butt;stroke-linejoin:miter;stroke-dasharray:none"
   transform="matrix(1,0,0,-1,0,612)"
   inkscape:export-filename="/home/cananian/Harpoon/Design/Figures/phd-spec-nt-2.png"
   inkscape:export-xdpi="197.98"
   inkscape:export-ydpi="197.98">
   <path
   id="path2758"
   d="M 91.8,91.8 L 91.8,520.2 L 703.8,520.2 L 703.8,91.8 L 91.8,91.8 z " />
  </g><g
   id="g2760"
   style="fill:#ffffff;fill-rule:nonzero"
   transform="matrix(1,0,0,-1,0,612)"
   inkscape:export-filename="/home/cananian/Harpoon/Design/Figures/phd-spec-nt-2.png"
   inkscape:export-xdpi="197.98"
   inkscape:export-ydpi="197.98">
   <path
   id="path2762"
   d="M 550.8,495.72 L 550.8,452.702 L 677.339,452.702 L 677.339,495.72 L 550.8,495.72 z " />
  </g><g
   id="g2764"
   style="fill:none;stroke:#000000;stroke-width:0.91799998;stroke-linecap:butt;stroke-linejoin:miter;stroke-dasharray:none"
   transform="matrix(1.1141492,0,0,-0.9988281,-62.848175,611.44429)"
   inkscape:export-filename="/home/cananian/Harpoon/Design/Figures/phd-spec-nt-2.png"
   inkscape:export-xdpi="197.98"
   inkscape:export-ydpi="197.98">
   <path
   id="path2766"
   d="M 550.8,495.72 L 550.8,452.702 L 677.339,452.702 L 677.339,495.72 L 550.8,495.72 z " />
  </g><g
   id="g2768"
   style="fill:#000000;fill-rule:nonzero"
   transform="matrix(1,0,0,-1,0,612)"
   inkscape:export-filename="/home/cananian/Harpoon/Design/Figures/phd-spec-nt-2.png"
   inkscape:export-xdpi="197.98"
   inkscape:export-ydpi="197.98">
   <text
   id="text2770"
   transform="matrix(2.8e-2,0,0,-2.8e-2,600.219,477.521)"
   style="font-size:612px;font-style:normal;font-weight:normal;font-family:Times &quot;, &quot; Nimbus Roman No9 L">Base</text>

   <path
   id="path2772"
   d="M 557.379,476.901 L 557.379,489.141 L 581.859,489.141 L 581.859,476.901 L 557.379,476.901 z " />
  </g><g
   id="g2774"
   style="fill:none;stroke:#000000;stroke-width:0.91799998;stroke-linecap:butt;stroke-linejoin:miter;stroke-dasharray:none"
   transform="matrix(1,0,0,-1,0,612)"
   inkscape:export-filename="/home/cananian/Harpoon/Design/Figures/phd-spec-nt-2.png"
   inkscape:export-xdpi="197.98"
   inkscape:export-ydpi="197.98">
   <path
   id="path2776"
   d="M 557.379,476.901 L 557.379,489.141 L 581.859,489.141 L 581.859,476.901 L 557.379,476.901 z " />
  </g><g
   id="g2778"
   style="fill:#000000;fill-rule:nonzero"
   transform="matrix(1,0,0,-1,0,612)"
   inkscape:export-filename="/home/cananian/Harpoon/Design/Figures/phd-spec-nt-2.png"
   inkscape:export-xdpi="197.98"
   inkscape:export-ydpi="197.98">
   <text
   id="text2780"
   transform="matrix(2.8e-2,0,0,-2.8e-2,600.219,459.401)"
   style="font-size:612px;font-style:normal;font-weight:normal;font-family:Times &quot;, &quot; Nimbus Roman No9 L">w/ Checks</text>

  </g><g
   id="g2782"
   style="fill:#ff0000;fill-rule:nonzero"
   transform="matrix(1,0,0,-1,0,612)"
   inkscape:export-filename="/home/cananian/Harpoon/Design/Figures/phd-spec-nt-2.png"
   inkscape:export-xdpi="197.98"
   inkscape:export-ydpi="197.98">
   <path
   id="path2784"
   d="M 557.379,459.281 L 557.379,471.521 L 581.859,471.521 L 581.859,459.281 L 557.379,459.281 z " />
  </g><g
   id="g2786"
   style="fill:none;stroke:#000000;stroke-width:0.91799998;stroke-linecap:butt;stroke-linejoin:miter;stroke-dasharray:none"
   transform="matrix(1,0,0,-1,0,612)"
   inkscape:export-filename="/home/cananian/Harpoon/Design/Figures/phd-spec-nt-2.png"
   inkscape:export-xdpi="197.98"
   inkscape:export-ydpi="197.98">
   <path
   id="path2788"
   d="M 557.379,459.281 L 557.379,471.521 L 581.859,471.521 L 581.859,459.281 L 557.379,459.281 z " />
  </g>
<g
   inkscape:groupmode="layer"
   id="layer1"
   inkscape:label="Main"
   style="display:inline" /><g
   inkscape:groupmode="layer"
   id="layer2"
   inkscape:label="Hidden"
   style="display:none"><g
     id="g2790"
     style="fill:#000000;fill-rule:nonzero;display:inline"
     transform="matrix(1,0,0,-1,0,612)">
   <text
   id="text2792"
   transform="matrix(4.2e-2,0,0,-4.2e-2,216.3,556.92)"
   style="font-size:612px;font-style:normal;font-weight:normal;font-family:Times &quot;, &quot; Nimbus Roman No9 L">Non-transactional Check Overhead</text>

   <text
   id="text2794"
   transform="matrix(2.8e-2,0,0,-2.8e-2,355.8,536.44)"
   style="font-size:612px;font-style:normal;font-weight:normal;font-family:Times &quot;, &quot; Nimbus Roman No9 L">SPECjvm98</text>

  </g></g></svg>